%TF.GenerationSoftware,KiCad,Pcbnew,(5.1.10)-1*%
%TF.CreationDate,2021-06-21T00:52:30-07:00*%
%TF.ProjectId,LED Matrix,4c454420-4d61-4747-9269-782e6b696361,v01*%
%TF.SameCoordinates,Original*%
%TF.FileFunction,Copper,L1,Top*%
%TF.FilePolarity,Positive*%
%FSLAX46Y46*%
G04 Gerber Fmt 4.6, Leading zero omitted, Abs format (unit mm)*
G04 Created by KiCad (PCBNEW (5.1.10)-1) date 2021-06-21 00:52:30*
%MOMM*%
%LPD*%
G01*
G04 APERTURE LIST*
%TA.AperFunction,ComponentPad*%
%ADD10R,1.600000X1.600000*%
%TD*%
%TA.AperFunction,ComponentPad*%
%ADD11C,1.600000*%
%TD*%
%TA.AperFunction,ComponentPad*%
%ADD12O,2.250000X4.500000*%
%TD*%
%TA.AperFunction,ComponentPad*%
%ADD13O,2.500000X5.000000*%
%TD*%
%TA.AperFunction,ComponentPad*%
%ADD14R,1.700000X1.700000*%
%TD*%
%TA.AperFunction,ComponentPad*%
%ADD15O,1.700000X1.700000*%
%TD*%
%TA.AperFunction,ComponentPad*%
%ADD16O,1.600000X1.600000*%
%TD*%
%TA.AperFunction,Conductor*%
%ADD17C,1.524000*%
%TD*%
%TA.AperFunction,Conductor*%
%ADD18C,0.250000*%
%TD*%
%TA.AperFunction,Conductor*%
%ADD19C,0.254000*%
%TD*%
%TA.AperFunction,Conductor*%
%ADD20C,0.100000*%
%TD*%
G04 APERTURE END LIST*
D10*
%TO.P,C1,1*%
%TO.N,VDD*%
X152654000Y-83058000D03*
D11*
%TO.P,C1,2*%
%TO.N,GND*%
X150154000Y-83058000D03*
%TD*%
D12*
%TO.P,J1,2*%
%TO.N,GND*%
X130398000Y-105156000D03*
D13*
%TO.P,J1,1*%
%TO.N,VDD*%
X136398000Y-105156000D03*
%TD*%
D12*
%TO.P,J2,2*%
%TO.N,GND*%
X156622000Y-105156000D03*
D13*
%TO.P,J2,1*%
%TO.N,Net-(J2-Pad1)*%
X150622000Y-105156000D03*
%TD*%
D14*
%TO.P,J3,1*%
%TO.N,VDD*%
X158750000Y-84582000D03*
D15*
%TO.P,J3,2*%
X158750000Y-87122000D03*
%TO.P,J3,3*%
X158750000Y-89662000D03*
%TO.P,J3,4*%
X158750000Y-92202000D03*
%TO.P,J3,5*%
X158750000Y-94742000D03*
%TO.P,J3,6*%
X158750000Y-97282000D03*
%TD*%
%TO.P,J4,6*%
%TO.N,GND*%
X144018000Y-94234000D03*
%TO.P,J4,5*%
X144018000Y-91694000D03*
%TO.P,J4,4*%
X144018000Y-89154000D03*
%TO.P,J4,3*%
X144018000Y-86614000D03*
%TO.P,J4,2*%
X144018000Y-84074000D03*
D14*
%TO.P,J4,1*%
X144018000Y-81534000D03*
%TD*%
%TO.P,J5,1*%
%TO.N,Net-(J5-Pad1)*%
X133096000Y-79248000D03*
D15*
%TO.P,J5,2*%
%TO.N,Net-(J5-Pad2)*%
X135636000Y-79248000D03*
%TO.P,J5,3*%
%TO.N,GND*%
X138176000Y-79248000D03*
%TD*%
D14*
%TO.P,J6,1*%
%TO.N,Net-(J6-Pad1)*%
X126492000Y-93726000D03*
D15*
%TO.P,J6,2*%
%TO.N,Net-(J6-Pad2)*%
X126492000Y-96266000D03*
%TD*%
D14*
%TO.P,J7,1*%
%TO.N,Net-(J7-Pad1)*%
X126492000Y-87884000D03*
D15*
%TO.P,J7,2*%
X126492000Y-85344000D03*
%TO.P,J7,3*%
%TO.N,Net-(J7-Pad3)*%
X126492000Y-82804000D03*
%TO.P,J7,4*%
X126492000Y-80264000D03*
%TD*%
D16*
%TO.P,R1,2*%
%TO.N,Net-(J5-Pad2)*%
X139700000Y-84582000D03*
D11*
%TO.P,R1,1*%
%TO.N,Net-(J5-Pad1)*%
X132080000Y-84582000D03*
%TD*%
%TO.P,R2,1*%
%TO.N,Net-(J6-Pad1)*%
X130556000Y-89408000D03*
D16*
%TO.P,R2,2*%
%TO.N,Net-(J6-Pad2)*%
X130556000Y-97028000D03*
%TD*%
D11*
%TO.P,R3,1*%
%TO.N,Net-(J7-Pad3)*%
X135382000Y-89408000D03*
D16*
%TO.P,R3,2*%
%TO.N,GND*%
X135382000Y-97028000D03*
%TD*%
%TO.P,SW1,2*%
%TO.N,Net-(J2-Pad1)*%
X143510000Y-99822000D03*
D10*
%TO.P,SW1,1*%
%TO.N,VDD*%
X143510000Y-107442000D03*
%TD*%
D17*
%TO.N,Net-(J2-Pad1)*%
X145288000Y-99822000D02*
X150622000Y-105156000D01*
X143510000Y-99822000D02*
X145288000Y-99822000D01*
D18*
%TO.N,Net-(J5-Pad1)*%
X133096000Y-83566000D02*
X132080000Y-84582000D01*
X133096000Y-79248000D02*
X133096000Y-83566000D01*
%TO.N,Net-(J5-Pad2)*%
X135636000Y-80518000D02*
X139700000Y-84582000D01*
X135636000Y-79248000D02*
X135636000Y-80518000D01*
%TO.N,Net-(J6-Pad1)*%
X130556000Y-91186000D02*
X130556000Y-89408000D01*
X128016000Y-93726000D02*
X130556000Y-91186000D01*
X126492000Y-93726000D02*
X128016000Y-93726000D01*
%TO.N,Net-(J6-Pad2)*%
X129794000Y-96266000D02*
X130556000Y-97028000D01*
X126492000Y-96266000D02*
X129794000Y-96266000D01*
%TO.N,Net-(J7-Pad1)*%
X126492000Y-85344000D02*
X126492000Y-87884000D01*
%TO.N,Net-(J7-Pad3)*%
X126492000Y-80264000D02*
X126492000Y-82804000D01*
X133096000Y-89408000D02*
X135382000Y-89408000D01*
X126492000Y-82804000D02*
X133096000Y-89408000D01*
%TD*%
D19*
%TO.N,VDD*%
X164452301Y-111112300D02*
X122567700Y-111112300D01*
X122567700Y-106367452D01*
X128638000Y-106367452D01*
X128663467Y-106626019D01*
X128764105Y-106957780D01*
X128927534Y-107263533D01*
X129147471Y-107531529D01*
X129415466Y-107751466D01*
X129721219Y-107914895D01*
X130052980Y-108015533D01*
X130398000Y-108049515D01*
X130743019Y-108015533D01*
X131074780Y-107914895D01*
X131380533Y-107751466D01*
X131648529Y-107531529D01*
X131868466Y-107263534D01*
X132031895Y-106957781D01*
X132132533Y-106626020D01*
X132158000Y-106367453D01*
X132158000Y-105283000D01*
X134513000Y-105283000D01*
X134513000Y-106533000D01*
X134573996Y-106898305D01*
X134705088Y-107244691D01*
X134901237Y-107558847D01*
X135154906Y-107828699D01*
X135456347Y-108043878D01*
X135793975Y-108196114D01*
X135978355Y-108243695D01*
X136271000Y-108127572D01*
X136271000Y-105283000D01*
X136525000Y-105283000D01*
X136525000Y-108127572D01*
X136817645Y-108243695D01*
X136824213Y-108242000D01*
X142071928Y-108242000D01*
X142084188Y-108366482D01*
X142120498Y-108486180D01*
X142179463Y-108596494D01*
X142258815Y-108693185D01*
X142355506Y-108772537D01*
X142465820Y-108831502D01*
X142585518Y-108867812D01*
X142710000Y-108880072D01*
X143224250Y-108877000D01*
X143383000Y-108718250D01*
X143383000Y-107569000D01*
X143637000Y-107569000D01*
X143637000Y-108718250D01*
X143795750Y-108877000D01*
X144310000Y-108880072D01*
X144434482Y-108867812D01*
X144554180Y-108831502D01*
X144664494Y-108772537D01*
X144761185Y-108693185D01*
X144840537Y-108596494D01*
X144899502Y-108486180D01*
X144935812Y-108366482D01*
X144948072Y-108242000D01*
X144945000Y-107727750D01*
X144786250Y-107569000D01*
X143637000Y-107569000D01*
X143383000Y-107569000D01*
X142233750Y-107569000D01*
X142075000Y-107727750D01*
X142071928Y-108242000D01*
X136824213Y-108242000D01*
X137002025Y-108196114D01*
X137339653Y-108043878D01*
X137641094Y-107828699D01*
X137894763Y-107558847D01*
X138090912Y-107244691D01*
X138222004Y-106898305D01*
X138264799Y-106642000D01*
X142071928Y-106642000D01*
X142075000Y-107156250D01*
X142233750Y-107315000D01*
X143383000Y-107315000D01*
X143383000Y-106165750D01*
X143637000Y-106165750D01*
X143637000Y-107315000D01*
X144786250Y-107315000D01*
X144945000Y-107156250D01*
X144948072Y-106642000D01*
X144935812Y-106517518D01*
X144899502Y-106397820D01*
X144840537Y-106287506D01*
X144761185Y-106190815D01*
X144664494Y-106111463D01*
X144554180Y-106052498D01*
X144434482Y-106016188D01*
X144310000Y-106003928D01*
X143795750Y-106007000D01*
X143637000Y-106165750D01*
X143383000Y-106165750D01*
X143224250Y-106007000D01*
X142710000Y-106003928D01*
X142585518Y-106016188D01*
X142465820Y-106052498D01*
X142355506Y-106111463D01*
X142258815Y-106190815D01*
X142179463Y-106287506D01*
X142120498Y-106397820D01*
X142084188Y-106517518D01*
X142071928Y-106642000D01*
X138264799Y-106642000D01*
X138283000Y-106533000D01*
X138283000Y-105283000D01*
X136525000Y-105283000D01*
X136271000Y-105283000D01*
X134513000Y-105283000D01*
X132158000Y-105283000D01*
X132158000Y-103944547D01*
X132141695Y-103779000D01*
X134513000Y-103779000D01*
X134513000Y-105029000D01*
X136271000Y-105029000D01*
X136271000Y-102184428D01*
X136525000Y-102184428D01*
X136525000Y-105029000D01*
X138283000Y-105029000D01*
X138283000Y-103779000D01*
X138222004Y-103413695D01*
X138090912Y-103067309D01*
X137894763Y-102753153D01*
X137641094Y-102483301D01*
X137339653Y-102268122D01*
X137002025Y-102115886D01*
X136817645Y-102068305D01*
X136525000Y-102184428D01*
X136271000Y-102184428D01*
X135978355Y-102068305D01*
X135793975Y-102115886D01*
X135456347Y-102268122D01*
X135154906Y-102483301D01*
X134901237Y-102753153D01*
X134705088Y-103067309D01*
X134573996Y-103413695D01*
X134513000Y-103779000D01*
X132141695Y-103779000D01*
X132132533Y-103685980D01*
X132031895Y-103354219D01*
X131868466Y-103048466D01*
X131648529Y-102780471D01*
X131380534Y-102560534D01*
X131074781Y-102397105D01*
X130743020Y-102296467D01*
X130398000Y-102262485D01*
X130052981Y-102296467D01*
X129721220Y-102397105D01*
X129415467Y-102560534D01*
X129147472Y-102780471D01*
X128927535Y-103048466D01*
X128764106Y-103354219D01*
X128663468Y-103685980D01*
X128638001Y-103944547D01*
X128638000Y-106367452D01*
X122567700Y-106367452D01*
X122567700Y-99680665D01*
X142075000Y-99680665D01*
X142075000Y-99963335D01*
X142130147Y-100240574D01*
X142238320Y-100501727D01*
X142395363Y-100736759D01*
X142595241Y-100936637D01*
X142830273Y-101093680D01*
X143091426Y-101201853D01*
X143368665Y-101257000D01*
X143651335Y-101257000D01*
X143842371Y-101219000D01*
X144709345Y-101219000D01*
X148737001Y-105246657D01*
X148737001Y-106498597D01*
X148764276Y-106775524D01*
X148872062Y-107130848D01*
X149047098Y-107458317D01*
X149282656Y-107745345D01*
X149569684Y-107980903D01*
X149897153Y-108155939D01*
X150252477Y-108263725D01*
X150622000Y-108300120D01*
X150991524Y-108263725D01*
X151346848Y-108155939D01*
X151674317Y-107980903D01*
X151961345Y-107745345D01*
X152196903Y-107458317D01*
X152371939Y-107130848D01*
X152479725Y-106775524D01*
X152507000Y-106498597D01*
X152507000Y-103944548D01*
X154862000Y-103944548D01*
X154862001Y-106367453D01*
X154887468Y-106626020D01*
X154988106Y-106957781D01*
X155151535Y-107263534D01*
X155371472Y-107531529D01*
X155639467Y-107751466D01*
X155945220Y-107914895D01*
X156276981Y-108015533D01*
X156622000Y-108049515D01*
X156967020Y-108015533D01*
X157298781Y-107914895D01*
X157604534Y-107751466D01*
X157872529Y-107531529D01*
X158092466Y-107263534D01*
X158255895Y-106957781D01*
X158356533Y-106626020D01*
X158382000Y-106367453D01*
X158382000Y-103944547D01*
X158356533Y-103685980D01*
X158255895Y-103354219D01*
X158092466Y-103048466D01*
X157872529Y-102780471D01*
X157604533Y-102560534D01*
X157298780Y-102397105D01*
X156967019Y-102296467D01*
X156622000Y-102262485D01*
X156276980Y-102296467D01*
X155945219Y-102397105D01*
X155639466Y-102560534D01*
X155371471Y-102780471D01*
X155151534Y-103048467D01*
X154988105Y-103354220D01*
X154887467Y-103685981D01*
X154862000Y-103944548D01*
X152507000Y-103944548D01*
X152507000Y-103813403D01*
X152479725Y-103536476D01*
X152371939Y-103181152D01*
X152196903Y-102853683D01*
X151961345Y-102566655D01*
X151674317Y-102331097D01*
X151346847Y-102156061D01*
X150991523Y-102048275D01*
X150622000Y-102011880D01*
X150252476Y-102048275D01*
X149897152Y-102156061D01*
X149702018Y-102260362D01*
X146324364Y-98882709D01*
X146280608Y-98829392D01*
X146067887Y-98654817D01*
X145825195Y-98525096D01*
X145561860Y-98445214D01*
X145356625Y-98425000D01*
X145288000Y-98418241D01*
X145219375Y-98425000D01*
X143842371Y-98425000D01*
X143651335Y-98387000D01*
X143368665Y-98387000D01*
X143091426Y-98442147D01*
X142830273Y-98550320D01*
X142595241Y-98707363D01*
X142395363Y-98907241D01*
X142238320Y-99142273D01*
X142130147Y-99403426D01*
X142075000Y-99680665D01*
X122567700Y-99680665D01*
X122567700Y-87034000D01*
X125003928Y-87034000D01*
X125003928Y-88734000D01*
X125016188Y-88858482D01*
X125052498Y-88978180D01*
X125111463Y-89088494D01*
X125190815Y-89185185D01*
X125287506Y-89264537D01*
X125397820Y-89323502D01*
X125517518Y-89359812D01*
X125642000Y-89372072D01*
X127342000Y-89372072D01*
X127466482Y-89359812D01*
X127586180Y-89323502D01*
X127696494Y-89264537D01*
X127793185Y-89185185D01*
X127872537Y-89088494D01*
X127931502Y-88978180D01*
X127967812Y-88858482D01*
X127980072Y-88734000D01*
X127980072Y-87034000D01*
X127967812Y-86909518D01*
X127931502Y-86789820D01*
X127872537Y-86679506D01*
X127793185Y-86582815D01*
X127696494Y-86503463D01*
X127586180Y-86444498D01*
X127513620Y-86422487D01*
X127645475Y-86290632D01*
X127807990Y-86047411D01*
X127919932Y-85777158D01*
X127977000Y-85490260D01*
X127977000Y-85363801D01*
X130586198Y-87973000D01*
X130414665Y-87973000D01*
X130137426Y-88028147D01*
X129876273Y-88136320D01*
X129641241Y-88293363D01*
X129441363Y-88493241D01*
X129284320Y-88728273D01*
X129176147Y-88989426D01*
X129121000Y-89266665D01*
X129121000Y-89549335D01*
X129176147Y-89826574D01*
X129284320Y-90087727D01*
X129441363Y-90322759D01*
X129641241Y-90522637D01*
X129796000Y-90626044D01*
X129796000Y-90871197D01*
X127955679Y-92711520D01*
X127931502Y-92631820D01*
X127872537Y-92521506D01*
X127793185Y-92424815D01*
X127696494Y-92345463D01*
X127586180Y-92286498D01*
X127466482Y-92250188D01*
X127342000Y-92237928D01*
X125642000Y-92237928D01*
X125517518Y-92250188D01*
X125397820Y-92286498D01*
X125287506Y-92345463D01*
X125190815Y-92424815D01*
X125111463Y-92521506D01*
X125052498Y-92631820D01*
X125016188Y-92751518D01*
X125003928Y-92876000D01*
X125003928Y-94576000D01*
X125016188Y-94700482D01*
X125052498Y-94820180D01*
X125111463Y-94930494D01*
X125190815Y-95027185D01*
X125287506Y-95106537D01*
X125397820Y-95165502D01*
X125470380Y-95187513D01*
X125338525Y-95319368D01*
X125176010Y-95562589D01*
X125064068Y-95832842D01*
X125007000Y-96119740D01*
X125007000Y-96412260D01*
X125064068Y-96699158D01*
X125176010Y-96969411D01*
X125338525Y-97212632D01*
X125545368Y-97419475D01*
X125788589Y-97581990D01*
X126058842Y-97693932D01*
X126345740Y-97751000D01*
X126638260Y-97751000D01*
X126925158Y-97693932D01*
X127195411Y-97581990D01*
X127438632Y-97419475D01*
X127645475Y-97212632D01*
X127770178Y-97026000D01*
X129121000Y-97026000D01*
X129121000Y-97169335D01*
X129176147Y-97446574D01*
X129284320Y-97707727D01*
X129441363Y-97942759D01*
X129641241Y-98142637D01*
X129876273Y-98299680D01*
X130137426Y-98407853D01*
X130414665Y-98463000D01*
X130697335Y-98463000D01*
X130974574Y-98407853D01*
X131235727Y-98299680D01*
X131470759Y-98142637D01*
X131670637Y-97942759D01*
X131827680Y-97707727D01*
X131935853Y-97446574D01*
X131991000Y-97169335D01*
X131991000Y-96886665D01*
X133947000Y-96886665D01*
X133947000Y-97169335D01*
X134002147Y-97446574D01*
X134110320Y-97707727D01*
X134267363Y-97942759D01*
X134467241Y-98142637D01*
X134702273Y-98299680D01*
X134963426Y-98407853D01*
X135240665Y-98463000D01*
X135523335Y-98463000D01*
X135800574Y-98407853D01*
X136061727Y-98299680D01*
X136296759Y-98142637D01*
X136496637Y-97942759D01*
X136653680Y-97707727D01*
X136682193Y-97638890D01*
X157308524Y-97638890D01*
X157353175Y-97786099D01*
X157478359Y-98048920D01*
X157652412Y-98282269D01*
X157868645Y-98477178D01*
X158118748Y-98626157D01*
X158393109Y-98723481D01*
X158623000Y-98602814D01*
X158623000Y-97409000D01*
X158877000Y-97409000D01*
X158877000Y-98602814D01*
X159106891Y-98723481D01*
X159381252Y-98626157D01*
X159631355Y-98477178D01*
X159847588Y-98282269D01*
X160021641Y-98048920D01*
X160146825Y-97786099D01*
X160191476Y-97638890D01*
X160070155Y-97409000D01*
X158877000Y-97409000D01*
X158623000Y-97409000D01*
X157429845Y-97409000D01*
X157308524Y-97638890D01*
X136682193Y-97638890D01*
X136761853Y-97446574D01*
X136817000Y-97169335D01*
X136817000Y-96886665D01*
X136761853Y-96609426D01*
X136653680Y-96348273D01*
X136496637Y-96113241D01*
X136296759Y-95913363D01*
X136061727Y-95756320D01*
X135800574Y-95648147D01*
X135523335Y-95593000D01*
X135240665Y-95593000D01*
X134963426Y-95648147D01*
X134702273Y-95756320D01*
X134467241Y-95913363D01*
X134267363Y-96113241D01*
X134110320Y-96348273D01*
X134002147Y-96609426D01*
X133947000Y-96886665D01*
X131991000Y-96886665D01*
X131935853Y-96609426D01*
X131827680Y-96348273D01*
X131670637Y-96113241D01*
X131470759Y-95913363D01*
X131235727Y-95756320D01*
X130974574Y-95648147D01*
X130697335Y-95593000D01*
X130414665Y-95593000D01*
X130219295Y-95631862D01*
X130218276Y-95631026D01*
X130086247Y-95560454D01*
X129942986Y-95516997D01*
X129831333Y-95506000D01*
X129831322Y-95506000D01*
X129794000Y-95502324D01*
X129756678Y-95506000D01*
X127770178Y-95506000D01*
X127645475Y-95319368D01*
X127513620Y-95187513D01*
X127586180Y-95165502D01*
X127696494Y-95106537D01*
X127793185Y-95027185D01*
X127872537Y-94930494D01*
X127931502Y-94820180D01*
X127967812Y-94700482D01*
X127980072Y-94576000D01*
X127980072Y-94486137D01*
X128016000Y-94489676D01*
X128053322Y-94486000D01*
X128053333Y-94486000D01*
X128164986Y-94475003D01*
X128308247Y-94431546D01*
X128440276Y-94360974D01*
X128556001Y-94266001D01*
X128579804Y-94236997D01*
X131067009Y-91749794D01*
X131096001Y-91726001D01*
X131119795Y-91697008D01*
X131119799Y-91697004D01*
X131190973Y-91610277D01*
X131190974Y-91610276D01*
X131261546Y-91478247D01*
X131305003Y-91334986D01*
X131316000Y-91223333D01*
X131316000Y-91223324D01*
X131319676Y-91186001D01*
X131316000Y-91148678D01*
X131316000Y-90626043D01*
X131470759Y-90522637D01*
X131670637Y-90322759D01*
X131827680Y-90087727D01*
X131935853Y-89826574D01*
X131991000Y-89549335D01*
X131991000Y-89377802D01*
X132532201Y-89919003D01*
X132555999Y-89948001D01*
X132671724Y-90042974D01*
X132803753Y-90113546D01*
X132947014Y-90157003D01*
X133058667Y-90168000D01*
X133058676Y-90168000D01*
X133095999Y-90171676D01*
X133133322Y-90168000D01*
X134163957Y-90168000D01*
X134267363Y-90322759D01*
X134467241Y-90522637D01*
X134702273Y-90679680D01*
X134963426Y-90787853D01*
X135240665Y-90843000D01*
X135523335Y-90843000D01*
X135800574Y-90787853D01*
X136061727Y-90679680D01*
X136296759Y-90522637D01*
X136496637Y-90322759D01*
X136653680Y-90087727D01*
X136761853Y-89826574D01*
X136817000Y-89549335D01*
X136817000Y-89266665D01*
X136761853Y-88989426D01*
X136653680Y-88728273D01*
X136496637Y-88493241D01*
X136296759Y-88293363D01*
X136061727Y-88136320D01*
X135800574Y-88028147D01*
X135523335Y-87973000D01*
X135240665Y-87973000D01*
X134963426Y-88028147D01*
X134702273Y-88136320D01*
X134467241Y-88293363D01*
X134267363Y-88493241D01*
X134163957Y-88648000D01*
X133410802Y-88648000D01*
X129203467Y-84440665D01*
X130645000Y-84440665D01*
X130645000Y-84723335D01*
X130700147Y-85000574D01*
X130808320Y-85261727D01*
X130965363Y-85496759D01*
X131165241Y-85696637D01*
X131400273Y-85853680D01*
X131661426Y-85961853D01*
X131938665Y-86017000D01*
X132221335Y-86017000D01*
X132498574Y-85961853D01*
X132759727Y-85853680D01*
X132994759Y-85696637D01*
X133194637Y-85496759D01*
X133351680Y-85261727D01*
X133459853Y-85000574D01*
X133515000Y-84723335D01*
X133515000Y-84440665D01*
X133478688Y-84258114D01*
X133607003Y-84129799D01*
X133636001Y-84106001D01*
X133700007Y-84028010D01*
X133730974Y-83990277D01*
X133801546Y-83858247D01*
X133801621Y-83858000D01*
X133845003Y-83714986D01*
X133856000Y-83603333D01*
X133856000Y-83603323D01*
X133859676Y-83566000D01*
X133856000Y-83528678D01*
X133856000Y-80736072D01*
X133946000Y-80736072D01*
X134070482Y-80723812D01*
X134190180Y-80687502D01*
X134300494Y-80628537D01*
X134397185Y-80549185D01*
X134476537Y-80452494D01*
X134535502Y-80342180D01*
X134557513Y-80269620D01*
X134689368Y-80401475D01*
X134872927Y-80524125D01*
X134876001Y-80555333D01*
X134886998Y-80666986D01*
X134900180Y-80710442D01*
X134930454Y-80810246D01*
X135001026Y-80942276D01*
X135072201Y-81029002D01*
X135096000Y-81058001D01*
X135124998Y-81081799D01*
X138301312Y-84258114D01*
X138265000Y-84440665D01*
X138265000Y-84723335D01*
X138320147Y-85000574D01*
X138428320Y-85261727D01*
X138585363Y-85496759D01*
X138785241Y-85696637D01*
X139020273Y-85853680D01*
X139281426Y-85961853D01*
X139558665Y-86017000D01*
X139841335Y-86017000D01*
X140118574Y-85961853D01*
X140379727Y-85853680D01*
X140614759Y-85696637D01*
X140814637Y-85496759D01*
X140971680Y-85261727D01*
X141079853Y-85000574D01*
X141135000Y-84723335D01*
X141135000Y-84440665D01*
X141079853Y-84163426D01*
X140971680Y-83902273D01*
X140814637Y-83667241D01*
X140614759Y-83467363D01*
X140379727Y-83310320D01*
X140118574Y-83202147D01*
X139841335Y-83147000D01*
X139558665Y-83147000D01*
X139376114Y-83183312D01*
X136588454Y-80395653D01*
X136789475Y-80194632D01*
X136906000Y-80020240D01*
X137022525Y-80194632D01*
X137229368Y-80401475D01*
X137472589Y-80563990D01*
X137742842Y-80675932D01*
X138029740Y-80733000D01*
X138322260Y-80733000D01*
X138568597Y-80684000D01*
X142529928Y-80684000D01*
X142529928Y-82384000D01*
X142542188Y-82508482D01*
X142578498Y-82628180D01*
X142637463Y-82738494D01*
X142716815Y-82835185D01*
X142813506Y-82914537D01*
X142923820Y-82973502D01*
X142996380Y-82995513D01*
X142864525Y-83127368D01*
X142702010Y-83370589D01*
X142590068Y-83640842D01*
X142533000Y-83927740D01*
X142533000Y-84220260D01*
X142590068Y-84507158D01*
X142702010Y-84777411D01*
X142864525Y-85020632D01*
X143071368Y-85227475D01*
X143245760Y-85344000D01*
X143071368Y-85460525D01*
X142864525Y-85667368D01*
X142702010Y-85910589D01*
X142590068Y-86180842D01*
X142533000Y-86467740D01*
X142533000Y-86760260D01*
X142590068Y-87047158D01*
X142702010Y-87317411D01*
X142864525Y-87560632D01*
X143071368Y-87767475D01*
X143245760Y-87884000D01*
X143071368Y-88000525D01*
X142864525Y-88207368D01*
X142702010Y-88450589D01*
X142590068Y-88720842D01*
X142533000Y-89007740D01*
X142533000Y-89300260D01*
X142590068Y-89587158D01*
X142702010Y-89857411D01*
X142864525Y-90100632D01*
X143071368Y-90307475D01*
X143245760Y-90424000D01*
X143071368Y-90540525D01*
X142864525Y-90747368D01*
X142702010Y-90990589D01*
X142590068Y-91260842D01*
X142533000Y-91547740D01*
X142533000Y-91840260D01*
X142590068Y-92127158D01*
X142702010Y-92397411D01*
X142864525Y-92640632D01*
X143071368Y-92847475D01*
X143245760Y-92964000D01*
X143071368Y-93080525D01*
X142864525Y-93287368D01*
X142702010Y-93530589D01*
X142590068Y-93800842D01*
X142533000Y-94087740D01*
X142533000Y-94380260D01*
X142590068Y-94667158D01*
X142702010Y-94937411D01*
X142864525Y-95180632D01*
X143071368Y-95387475D01*
X143314589Y-95549990D01*
X143584842Y-95661932D01*
X143871740Y-95719000D01*
X144164260Y-95719000D01*
X144451158Y-95661932D01*
X144721411Y-95549990D01*
X144964632Y-95387475D01*
X145171475Y-95180632D01*
X145226093Y-95098890D01*
X157308524Y-95098890D01*
X157353175Y-95246099D01*
X157478359Y-95508920D01*
X157652412Y-95742269D01*
X157868645Y-95937178D01*
X157994255Y-96012000D01*
X157868645Y-96086822D01*
X157652412Y-96281731D01*
X157478359Y-96515080D01*
X157353175Y-96777901D01*
X157308524Y-96925110D01*
X157429845Y-97155000D01*
X158623000Y-97155000D01*
X158623000Y-94869000D01*
X158877000Y-94869000D01*
X158877000Y-97155000D01*
X160070155Y-97155000D01*
X160191476Y-96925110D01*
X160146825Y-96777901D01*
X160021641Y-96515080D01*
X159847588Y-96281731D01*
X159631355Y-96086822D01*
X159505745Y-96012000D01*
X159631355Y-95937178D01*
X159847588Y-95742269D01*
X160021641Y-95508920D01*
X160146825Y-95246099D01*
X160191476Y-95098890D01*
X160070155Y-94869000D01*
X158877000Y-94869000D01*
X158623000Y-94869000D01*
X157429845Y-94869000D01*
X157308524Y-95098890D01*
X145226093Y-95098890D01*
X145333990Y-94937411D01*
X145445932Y-94667158D01*
X145503000Y-94380260D01*
X145503000Y-94087740D01*
X145445932Y-93800842D01*
X145333990Y-93530589D01*
X145171475Y-93287368D01*
X144964632Y-93080525D01*
X144790240Y-92964000D01*
X144964632Y-92847475D01*
X145171475Y-92640632D01*
X145226093Y-92558890D01*
X157308524Y-92558890D01*
X157353175Y-92706099D01*
X157478359Y-92968920D01*
X157652412Y-93202269D01*
X157868645Y-93397178D01*
X157994255Y-93472000D01*
X157868645Y-93546822D01*
X157652412Y-93741731D01*
X157478359Y-93975080D01*
X157353175Y-94237901D01*
X157308524Y-94385110D01*
X157429845Y-94615000D01*
X158623000Y-94615000D01*
X158623000Y-92329000D01*
X158877000Y-92329000D01*
X158877000Y-94615000D01*
X160070155Y-94615000D01*
X160191476Y-94385110D01*
X160146825Y-94237901D01*
X160021641Y-93975080D01*
X159847588Y-93741731D01*
X159631355Y-93546822D01*
X159505745Y-93472000D01*
X159631355Y-93397178D01*
X159847588Y-93202269D01*
X160021641Y-92968920D01*
X160146825Y-92706099D01*
X160191476Y-92558890D01*
X160070155Y-92329000D01*
X158877000Y-92329000D01*
X158623000Y-92329000D01*
X157429845Y-92329000D01*
X157308524Y-92558890D01*
X145226093Y-92558890D01*
X145333990Y-92397411D01*
X145445932Y-92127158D01*
X145503000Y-91840260D01*
X145503000Y-91547740D01*
X145445932Y-91260842D01*
X145333990Y-90990589D01*
X145171475Y-90747368D01*
X144964632Y-90540525D01*
X144790240Y-90424000D01*
X144964632Y-90307475D01*
X145171475Y-90100632D01*
X145226093Y-90018890D01*
X157308524Y-90018890D01*
X157353175Y-90166099D01*
X157478359Y-90428920D01*
X157652412Y-90662269D01*
X157868645Y-90857178D01*
X157994255Y-90932000D01*
X157868645Y-91006822D01*
X157652412Y-91201731D01*
X157478359Y-91435080D01*
X157353175Y-91697901D01*
X157308524Y-91845110D01*
X157429845Y-92075000D01*
X158623000Y-92075000D01*
X158623000Y-89789000D01*
X158877000Y-89789000D01*
X158877000Y-92075000D01*
X160070155Y-92075000D01*
X160191476Y-91845110D01*
X160146825Y-91697901D01*
X160021641Y-91435080D01*
X159847588Y-91201731D01*
X159631355Y-91006822D01*
X159505745Y-90932000D01*
X159631355Y-90857178D01*
X159847588Y-90662269D01*
X160021641Y-90428920D01*
X160146825Y-90166099D01*
X160191476Y-90018890D01*
X160070155Y-89789000D01*
X158877000Y-89789000D01*
X158623000Y-89789000D01*
X157429845Y-89789000D01*
X157308524Y-90018890D01*
X145226093Y-90018890D01*
X145333990Y-89857411D01*
X145445932Y-89587158D01*
X145503000Y-89300260D01*
X145503000Y-89007740D01*
X145445932Y-88720842D01*
X145333990Y-88450589D01*
X145171475Y-88207368D01*
X144964632Y-88000525D01*
X144790240Y-87884000D01*
X144964632Y-87767475D01*
X145171475Y-87560632D01*
X145226093Y-87478890D01*
X157308524Y-87478890D01*
X157353175Y-87626099D01*
X157478359Y-87888920D01*
X157652412Y-88122269D01*
X157868645Y-88317178D01*
X157994255Y-88392000D01*
X157868645Y-88466822D01*
X157652412Y-88661731D01*
X157478359Y-88895080D01*
X157353175Y-89157901D01*
X157308524Y-89305110D01*
X157429845Y-89535000D01*
X158623000Y-89535000D01*
X158623000Y-87249000D01*
X158877000Y-87249000D01*
X158877000Y-89535000D01*
X160070155Y-89535000D01*
X160191476Y-89305110D01*
X160146825Y-89157901D01*
X160021641Y-88895080D01*
X159847588Y-88661731D01*
X159631355Y-88466822D01*
X159505745Y-88392000D01*
X159631355Y-88317178D01*
X159847588Y-88122269D01*
X160021641Y-87888920D01*
X160146825Y-87626099D01*
X160191476Y-87478890D01*
X160070155Y-87249000D01*
X158877000Y-87249000D01*
X158623000Y-87249000D01*
X157429845Y-87249000D01*
X157308524Y-87478890D01*
X145226093Y-87478890D01*
X145333990Y-87317411D01*
X145445932Y-87047158D01*
X145503000Y-86760260D01*
X145503000Y-86467740D01*
X145445932Y-86180842D01*
X145333990Y-85910589D01*
X145171475Y-85667368D01*
X144964632Y-85460525D01*
X144921942Y-85432000D01*
X157261928Y-85432000D01*
X157274188Y-85556482D01*
X157310498Y-85676180D01*
X157369463Y-85786494D01*
X157448815Y-85883185D01*
X157545506Y-85962537D01*
X157655820Y-86021502D01*
X157736466Y-86045966D01*
X157652412Y-86121731D01*
X157478359Y-86355080D01*
X157353175Y-86617901D01*
X157308524Y-86765110D01*
X157429845Y-86995000D01*
X158623000Y-86995000D01*
X158623000Y-84709000D01*
X158877000Y-84709000D01*
X158877000Y-86995000D01*
X160070155Y-86995000D01*
X160191476Y-86765110D01*
X160146825Y-86617901D01*
X160021641Y-86355080D01*
X159847588Y-86121731D01*
X159763534Y-86045966D01*
X159844180Y-86021502D01*
X159954494Y-85962537D01*
X160051185Y-85883185D01*
X160130537Y-85786494D01*
X160189502Y-85676180D01*
X160225812Y-85556482D01*
X160238072Y-85432000D01*
X160235000Y-84867750D01*
X160076250Y-84709000D01*
X158877000Y-84709000D01*
X158623000Y-84709000D01*
X157423750Y-84709000D01*
X157265000Y-84867750D01*
X157261928Y-85432000D01*
X144921942Y-85432000D01*
X144790240Y-85344000D01*
X144964632Y-85227475D01*
X145171475Y-85020632D01*
X145333990Y-84777411D01*
X145445932Y-84507158D01*
X145503000Y-84220260D01*
X145503000Y-83927740D01*
X145445932Y-83640842D01*
X145333990Y-83370589D01*
X145171475Y-83127368D01*
X145039620Y-82995513D01*
X145112180Y-82973502D01*
X145218512Y-82916665D01*
X148719000Y-82916665D01*
X148719000Y-83199335D01*
X148774147Y-83476574D01*
X148882320Y-83737727D01*
X149039363Y-83972759D01*
X149239241Y-84172637D01*
X149474273Y-84329680D01*
X149735426Y-84437853D01*
X150012665Y-84493000D01*
X150295335Y-84493000D01*
X150572574Y-84437853D01*
X150833727Y-84329680D01*
X151068759Y-84172637D01*
X151235339Y-84006057D01*
X151264498Y-84102180D01*
X151323463Y-84212494D01*
X151402815Y-84309185D01*
X151499506Y-84388537D01*
X151609820Y-84447502D01*
X151729518Y-84483812D01*
X151854000Y-84496072D01*
X152368250Y-84493000D01*
X152527000Y-84334250D01*
X152527000Y-83185000D01*
X152781000Y-83185000D01*
X152781000Y-84334250D01*
X152939750Y-84493000D01*
X153454000Y-84496072D01*
X153578482Y-84483812D01*
X153698180Y-84447502D01*
X153808494Y-84388537D01*
X153905185Y-84309185D01*
X153984537Y-84212494D01*
X154043502Y-84102180D01*
X154079812Y-83982482D01*
X154092072Y-83858000D01*
X154091320Y-83732000D01*
X157261928Y-83732000D01*
X157265000Y-84296250D01*
X157423750Y-84455000D01*
X158623000Y-84455000D01*
X158623000Y-83255750D01*
X158877000Y-83255750D01*
X158877000Y-84455000D01*
X160076250Y-84455000D01*
X160235000Y-84296250D01*
X160238072Y-83732000D01*
X160225812Y-83607518D01*
X160189502Y-83487820D01*
X160130537Y-83377506D01*
X160051185Y-83280815D01*
X159954494Y-83201463D01*
X159844180Y-83142498D01*
X159724482Y-83106188D01*
X159600000Y-83093928D01*
X159035750Y-83097000D01*
X158877000Y-83255750D01*
X158623000Y-83255750D01*
X158464250Y-83097000D01*
X157900000Y-83093928D01*
X157775518Y-83106188D01*
X157655820Y-83142498D01*
X157545506Y-83201463D01*
X157448815Y-83280815D01*
X157369463Y-83377506D01*
X157310498Y-83487820D01*
X157274188Y-83607518D01*
X157261928Y-83732000D01*
X154091320Y-83732000D01*
X154089000Y-83343750D01*
X153930250Y-83185000D01*
X152781000Y-83185000D01*
X152527000Y-83185000D01*
X152507000Y-83185000D01*
X152507000Y-82931000D01*
X152527000Y-82931000D01*
X152527000Y-81781750D01*
X152781000Y-81781750D01*
X152781000Y-82931000D01*
X153930250Y-82931000D01*
X154089000Y-82772250D01*
X154092072Y-82258000D01*
X154079812Y-82133518D01*
X154043502Y-82013820D01*
X153984537Y-81903506D01*
X153905185Y-81806815D01*
X153808494Y-81727463D01*
X153698180Y-81668498D01*
X153578482Y-81632188D01*
X153454000Y-81619928D01*
X152939750Y-81623000D01*
X152781000Y-81781750D01*
X152527000Y-81781750D01*
X152368250Y-81623000D01*
X151854000Y-81619928D01*
X151729518Y-81632188D01*
X151609820Y-81668498D01*
X151499506Y-81727463D01*
X151402815Y-81806815D01*
X151323463Y-81903506D01*
X151264498Y-82013820D01*
X151235339Y-82109943D01*
X151068759Y-81943363D01*
X150833727Y-81786320D01*
X150572574Y-81678147D01*
X150295335Y-81623000D01*
X150012665Y-81623000D01*
X149735426Y-81678147D01*
X149474273Y-81786320D01*
X149239241Y-81943363D01*
X149039363Y-82143241D01*
X148882320Y-82378273D01*
X148774147Y-82639426D01*
X148719000Y-82916665D01*
X145218512Y-82916665D01*
X145222494Y-82914537D01*
X145319185Y-82835185D01*
X145398537Y-82738494D01*
X145457502Y-82628180D01*
X145493812Y-82508482D01*
X145506072Y-82384000D01*
X145506072Y-80684000D01*
X145493812Y-80559518D01*
X145457502Y-80439820D01*
X145398537Y-80329506D01*
X145319185Y-80232815D01*
X145222494Y-80153463D01*
X145112180Y-80094498D01*
X144992482Y-80058188D01*
X144868000Y-80045928D01*
X143168000Y-80045928D01*
X143043518Y-80058188D01*
X142923820Y-80094498D01*
X142813506Y-80153463D01*
X142716815Y-80232815D01*
X142637463Y-80329506D01*
X142578498Y-80439820D01*
X142542188Y-80559518D01*
X142529928Y-80684000D01*
X138568597Y-80684000D01*
X138609158Y-80675932D01*
X138879411Y-80563990D01*
X139122632Y-80401475D01*
X139329475Y-80194632D01*
X139491990Y-79951411D01*
X139603932Y-79681158D01*
X139661000Y-79394260D01*
X139661000Y-79101740D01*
X139657082Y-79082042D01*
X160367000Y-79082042D01*
X160367000Y-79413958D01*
X160431754Y-79739496D01*
X160558772Y-80046147D01*
X160743175Y-80322125D01*
X160977875Y-80556825D01*
X161253853Y-80741228D01*
X161560504Y-80868246D01*
X161886042Y-80933000D01*
X162217958Y-80933000D01*
X162543496Y-80868246D01*
X162850147Y-80741228D01*
X163126125Y-80556825D01*
X163360825Y-80322125D01*
X163545228Y-80046147D01*
X163672246Y-79739496D01*
X163737000Y-79413958D01*
X163737000Y-79082042D01*
X163672246Y-78756504D01*
X163545228Y-78449853D01*
X163360825Y-78173875D01*
X163126125Y-77939175D01*
X162850147Y-77754772D01*
X162543496Y-77627754D01*
X162217958Y-77563000D01*
X161886042Y-77563000D01*
X161560504Y-77627754D01*
X161253853Y-77754772D01*
X160977875Y-77939175D01*
X160743175Y-78173875D01*
X160558772Y-78449853D01*
X160431754Y-78756504D01*
X160367000Y-79082042D01*
X139657082Y-79082042D01*
X139603932Y-78814842D01*
X139491990Y-78544589D01*
X139329475Y-78301368D01*
X139122632Y-78094525D01*
X138879411Y-77932010D01*
X138609158Y-77820068D01*
X138322260Y-77763000D01*
X138029740Y-77763000D01*
X137742842Y-77820068D01*
X137472589Y-77932010D01*
X137229368Y-78094525D01*
X137022525Y-78301368D01*
X136906000Y-78475760D01*
X136789475Y-78301368D01*
X136582632Y-78094525D01*
X136339411Y-77932010D01*
X136069158Y-77820068D01*
X135782260Y-77763000D01*
X135489740Y-77763000D01*
X135202842Y-77820068D01*
X134932589Y-77932010D01*
X134689368Y-78094525D01*
X134557513Y-78226380D01*
X134535502Y-78153820D01*
X134476537Y-78043506D01*
X134397185Y-77946815D01*
X134300494Y-77867463D01*
X134190180Y-77808498D01*
X134070482Y-77772188D01*
X133946000Y-77759928D01*
X132246000Y-77759928D01*
X132121518Y-77772188D01*
X132001820Y-77808498D01*
X131891506Y-77867463D01*
X131794815Y-77946815D01*
X131715463Y-78043506D01*
X131656498Y-78153820D01*
X131620188Y-78273518D01*
X131607928Y-78398000D01*
X131607928Y-80098000D01*
X131620188Y-80222482D01*
X131656498Y-80342180D01*
X131715463Y-80452494D01*
X131794815Y-80549185D01*
X131891506Y-80628537D01*
X132001820Y-80687502D01*
X132121518Y-80723812D01*
X132246000Y-80736072D01*
X132336000Y-80736072D01*
X132336001Y-83169809D01*
X132221335Y-83147000D01*
X131938665Y-83147000D01*
X131661426Y-83202147D01*
X131400273Y-83310320D01*
X131165241Y-83467363D01*
X130965363Y-83667241D01*
X130808320Y-83902273D01*
X130700147Y-84163426D01*
X130645000Y-84440665D01*
X129203467Y-84440665D01*
X127933209Y-83170408D01*
X127977000Y-82950260D01*
X127977000Y-82657740D01*
X127919932Y-82370842D01*
X127807990Y-82100589D01*
X127645475Y-81857368D01*
X127438632Y-81650525D01*
X127264240Y-81534000D01*
X127438632Y-81417475D01*
X127645475Y-81210632D01*
X127807990Y-80967411D01*
X127919932Y-80697158D01*
X127977000Y-80410260D01*
X127977000Y-80117740D01*
X127919932Y-79830842D01*
X127807990Y-79560589D01*
X127645475Y-79317368D01*
X127438632Y-79110525D01*
X127195411Y-78948010D01*
X126925158Y-78836068D01*
X126638260Y-78779000D01*
X126345740Y-78779000D01*
X126058842Y-78836068D01*
X125788589Y-78948010D01*
X125545368Y-79110525D01*
X125338525Y-79317368D01*
X125176010Y-79560589D01*
X125064068Y-79830842D01*
X125007000Y-80117740D01*
X125007000Y-80410260D01*
X125064068Y-80697158D01*
X125176010Y-80967411D01*
X125338525Y-81210632D01*
X125545368Y-81417475D01*
X125719760Y-81534000D01*
X125545368Y-81650525D01*
X125338525Y-81857368D01*
X125176010Y-82100589D01*
X125064068Y-82370842D01*
X125007000Y-82657740D01*
X125007000Y-82950260D01*
X125064068Y-83237158D01*
X125176010Y-83507411D01*
X125338525Y-83750632D01*
X125545368Y-83957475D01*
X125719760Y-84074000D01*
X125545368Y-84190525D01*
X125338525Y-84397368D01*
X125176010Y-84640589D01*
X125064068Y-84910842D01*
X125007000Y-85197740D01*
X125007000Y-85490260D01*
X125064068Y-85777158D01*
X125176010Y-86047411D01*
X125338525Y-86290632D01*
X125470380Y-86422487D01*
X125397820Y-86444498D01*
X125287506Y-86503463D01*
X125190815Y-86582815D01*
X125111463Y-86679506D01*
X125052498Y-86789820D01*
X125016188Y-86909518D01*
X125003928Y-87034000D01*
X122567700Y-87034000D01*
X122567700Y-76847700D01*
X164452300Y-76847700D01*
X164452301Y-111112300D01*
%TA.AperFunction,Conductor*%
D20*
G36*
X164452301Y-111112300D02*
G01*
X122567700Y-111112300D01*
X122567700Y-106367452D01*
X128638000Y-106367452D01*
X128663467Y-106626019D01*
X128764105Y-106957780D01*
X128927534Y-107263533D01*
X129147471Y-107531529D01*
X129415466Y-107751466D01*
X129721219Y-107914895D01*
X130052980Y-108015533D01*
X130398000Y-108049515D01*
X130743019Y-108015533D01*
X131074780Y-107914895D01*
X131380533Y-107751466D01*
X131648529Y-107531529D01*
X131868466Y-107263534D01*
X132031895Y-106957781D01*
X132132533Y-106626020D01*
X132158000Y-106367453D01*
X132158000Y-105283000D01*
X134513000Y-105283000D01*
X134513000Y-106533000D01*
X134573996Y-106898305D01*
X134705088Y-107244691D01*
X134901237Y-107558847D01*
X135154906Y-107828699D01*
X135456347Y-108043878D01*
X135793975Y-108196114D01*
X135978355Y-108243695D01*
X136271000Y-108127572D01*
X136271000Y-105283000D01*
X136525000Y-105283000D01*
X136525000Y-108127572D01*
X136817645Y-108243695D01*
X136824213Y-108242000D01*
X142071928Y-108242000D01*
X142084188Y-108366482D01*
X142120498Y-108486180D01*
X142179463Y-108596494D01*
X142258815Y-108693185D01*
X142355506Y-108772537D01*
X142465820Y-108831502D01*
X142585518Y-108867812D01*
X142710000Y-108880072D01*
X143224250Y-108877000D01*
X143383000Y-108718250D01*
X143383000Y-107569000D01*
X143637000Y-107569000D01*
X143637000Y-108718250D01*
X143795750Y-108877000D01*
X144310000Y-108880072D01*
X144434482Y-108867812D01*
X144554180Y-108831502D01*
X144664494Y-108772537D01*
X144761185Y-108693185D01*
X144840537Y-108596494D01*
X144899502Y-108486180D01*
X144935812Y-108366482D01*
X144948072Y-108242000D01*
X144945000Y-107727750D01*
X144786250Y-107569000D01*
X143637000Y-107569000D01*
X143383000Y-107569000D01*
X142233750Y-107569000D01*
X142075000Y-107727750D01*
X142071928Y-108242000D01*
X136824213Y-108242000D01*
X137002025Y-108196114D01*
X137339653Y-108043878D01*
X137641094Y-107828699D01*
X137894763Y-107558847D01*
X138090912Y-107244691D01*
X138222004Y-106898305D01*
X138264799Y-106642000D01*
X142071928Y-106642000D01*
X142075000Y-107156250D01*
X142233750Y-107315000D01*
X143383000Y-107315000D01*
X143383000Y-106165750D01*
X143637000Y-106165750D01*
X143637000Y-107315000D01*
X144786250Y-107315000D01*
X144945000Y-107156250D01*
X144948072Y-106642000D01*
X144935812Y-106517518D01*
X144899502Y-106397820D01*
X144840537Y-106287506D01*
X144761185Y-106190815D01*
X144664494Y-106111463D01*
X144554180Y-106052498D01*
X144434482Y-106016188D01*
X144310000Y-106003928D01*
X143795750Y-106007000D01*
X143637000Y-106165750D01*
X143383000Y-106165750D01*
X143224250Y-106007000D01*
X142710000Y-106003928D01*
X142585518Y-106016188D01*
X142465820Y-106052498D01*
X142355506Y-106111463D01*
X142258815Y-106190815D01*
X142179463Y-106287506D01*
X142120498Y-106397820D01*
X142084188Y-106517518D01*
X142071928Y-106642000D01*
X138264799Y-106642000D01*
X138283000Y-106533000D01*
X138283000Y-105283000D01*
X136525000Y-105283000D01*
X136271000Y-105283000D01*
X134513000Y-105283000D01*
X132158000Y-105283000D01*
X132158000Y-103944547D01*
X132141695Y-103779000D01*
X134513000Y-103779000D01*
X134513000Y-105029000D01*
X136271000Y-105029000D01*
X136271000Y-102184428D01*
X136525000Y-102184428D01*
X136525000Y-105029000D01*
X138283000Y-105029000D01*
X138283000Y-103779000D01*
X138222004Y-103413695D01*
X138090912Y-103067309D01*
X137894763Y-102753153D01*
X137641094Y-102483301D01*
X137339653Y-102268122D01*
X137002025Y-102115886D01*
X136817645Y-102068305D01*
X136525000Y-102184428D01*
X136271000Y-102184428D01*
X135978355Y-102068305D01*
X135793975Y-102115886D01*
X135456347Y-102268122D01*
X135154906Y-102483301D01*
X134901237Y-102753153D01*
X134705088Y-103067309D01*
X134573996Y-103413695D01*
X134513000Y-103779000D01*
X132141695Y-103779000D01*
X132132533Y-103685980D01*
X132031895Y-103354219D01*
X131868466Y-103048466D01*
X131648529Y-102780471D01*
X131380534Y-102560534D01*
X131074781Y-102397105D01*
X130743020Y-102296467D01*
X130398000Y-102262485D01*
X130052981Y-102296467D01*
X129721220Y-102397105D01*
X129415467Y-102560534D01*
X129147472Y-102780471D01*
X128927535Y-103048466D01*
X128764106Y-103354219D01*
X128663468Y-103685980D01*
X128638001Y-103944547D01*
X128638000Y-106367452D01*
X122567700Y-106367452D01*
X122567700Y-99680665D01*
X142075000Y-99680665D01*
X142075000Y-99963335D01*
X142130147Y-100240574D01*
X142238320Y-100501727D01*
X142395363Y-100736759D01*
X142595241Y-100936637D01*
X142830273Y-101093680D01*
X143091426Y-101201853D01*
X143368665Y-101257000D01*
X143651335Y-101257000D01*
X143842371Y-101219000D01*
X144709345Y-101219000D01*
X148737001Y-105246657D01*
X148737001Y-106498597D01*
X148764276Y-106775524D01*
X148872062Y-107130848D01*
X149047098Y-107458317D01*
X149282656Y-107745345D01*
X149569684Y-107980903D01*
X149897153Y-108155939D01*
X150252477Y-108263725D01*
X150622000Y-108300120D01*
X150991524Y-108263725D01*
X151346848Y-108155939D01*
X151674317Y-107980903D01*
X151961345Y-107745345D01*
X152196903Y-107458317D01*
X152371939Y-107130848D01*
X152479725Y-106775524D01*
X152507000Y-106498597D01*
X152507000Y-103944548D01*
X154862000Y-103944548D01*
X154862001Y-106367453D01*
X154887468Y-106626020D01*
X154988106Y-106957781D01*
X155151535Y-107263534D01*
X155371472Y-107531529D01*
X155639467Y-107751466D01*
X155945220Y-107914895D01*
X156276981Y-108015533D01*
X156622000Y-108049515D01*
X156967020Y-108015533D01*
X157298781Y-107914895D01*
X157604534Y-107751466D01*
X157872529Y-107531529D01*
X158092466Y-107263534D01*
X158255895Y-106957781D01*
X158356533Y-106626020D01*
X158382000Y-106367453D01*
X158382000Y-103944547D01*
X158356533Y-103685980D01*
X158255895Y-103354219D01*
X158092466Y-103048466D01*
X157872529Y-102780471D01*
X157604533Y-102560534D01*
X157298780Y-102397105D01*
X156967019Y-102296467D01*
X156622000Y-102262485D01*
X156276980Y-102296467D01*
X155945219Y-102397105D01*
X155639466Y-102560534D01*
X155371471Y-102780471D01*
X155151534Y-103048467D01*
X154988105Y-103354220D01*
X154887467Y-103685981D01*
X154862000Y-103944548D01*
X152507000Y-103944548D01*
X152507000Y-103813403D01*
X152479725Y-103536476D01*
X152371939Y-103181152D01*
X152196903Y-102853683D01*
X151961345Y-102566655D01*
X151674317Y-102331097D01*
X151346847Y-102156061D01*
X150991523Y-102048275D01*
X150622000Y-102011880D01*
X150252476Y-102048275D01*
X149897152Y-102156061D01*
X149702018Y-102260362D01*
X146324364Y-98882709D01*
X146280608Y-98829392D01*
X146067887Y-98654817D01*
X145825195Y-98525096D01*
X145561860Y-98445214D01*
X145356625Y-98425000D01*
X145288000Y-98418241D01*
X145219375Y-98425000D01*
X143842371Y-98425000D01*
X143651335Y-98387000D01*
X143368665Y-98387000D01*
X143091426Y-98442147D01*
X142830273Y-98550320D01*
X142595241Y-98707363D01*
X142395363Y-98907241D01*
X142238320Y-99142273D01*
X142130147Y-99403426D01*
X142075000Y-99680665D01*
X122567700Y-99680665D01*
X122567700Y-87034000D01*
X125003928Y-87034000D01*
X125003928Y-88734000D01*
X125016188Y-88858482D01*
X125052498Y-88978180D01*
X125111463Y-89088494D01*
X125190815Y-89185185D01*
X125287506Y-89264537D01*
X125397820Y-89323502D01*
X125517518Y-89359812D01*
X125642000Y-89372072D01*
X127342000Y-89372072D01*
X127466482Y-89359812D01*
X127586180Y-89323502D01*
X127696494Y-89264537D01*
X127793185Y-89185185D01*
X127872537Y-89088494D01*
X127931502Y-88978180D01*
X127967812Y-88858482D01*
X127980072Y-88734000D01*
X127980072Y-87034000D01*
X127967812Y-86909518D01*
X127931502Y-86789820D01*
X127872537Y-86679506D01*
X127793185Y-86582815D01*
X127696494Y-86503463D01*
X127586180Y-86444498D01*
X127513620Y-86422487D01*
X127645475Y-86290632D01*
X127807990Y-86047411D01*
X127919932Y-85777158D01*
X127977000Y-85490260D01*
X127977000Y-85363801D01*
X130586198Y-87973000D01*
X130414665Y-87973000D01*
X130137426Y-88028147D01*
X129876273Y-88136320D01*
X129641241Y-88293363D01*
X129441363Y-88493241D01*
X129284320Y-88728273D01*
X129176147Y-88989426D01*
X129121000Y-89266665D01*
X129121000Y-89549335D01*
X129176147Y-89826574D01*
X129284320Y-90087727D01*
X129441363Y-90322759D01*
X129641241Y-90522637D01*
X129796000Y-90626044D01*
X129796000Y-90871197D01*
X127955679Y-92711520D01*
X127931502Y-92631820D01*
X127872537Y-92521506D01*
X127793185Y-92424815D01*
X127696494Y-92345463D01*
X127586180Y-92286498D01*
X127466482Y-92250188D01*
X127342000Y-92237928D01*
X125642000Y-92237928D01*
X125517518Y-92250188D01*
X125397820Y-92286498D01*
X125287506Y-92345463D01*
X125190815Y-92424815D01*
X125111463Y-92521506D01*
X125052498Y-92631820D01*
X125016188Y-92751518D01*
X125003928Y-92876000D01*
X125003928Y-94576000D01*
X125016188Y-94700482D01*
X125052498Y-94820180D01*
X125111463Y-94930494D01*
X125190815Y-95027185D01*
X125287506Y-95106537D01*
X125397820Y-95165502D01*
X125470380Y-95187513D01*
X125338525Y-95319368D01*
X125176010Y-95562589D01*
X125064068Y-95832842D01*
X125007000Y-96119740D01*
X125007000Y-96412260D01*
X125064068Y-96699158D01*
X125176010Y-96969411D01*
X125338525Y-97212632D01*
X125545368Y-97419475D01*
X125788589Y-97581990D01*
X126058842Y-97693932D01*
X126345740Y-97751000D01*
X126638260Y-97751000D01*
X126925158Y-97693932D01*
X127195411Y-97581990D01*
X127438632Y-97419475D01*
X127645475Y-97212632D01*
X127770178Y-97026000D01*
X129121000Y-97026000D01*
X129121000Y-97169335D01*
X129176147Y-97446574D01*
X129284320Y-97707727D01*
X129441363Y-97942759D01*
X129641241Y-98142637D01*
X129876273Y-98299680D01*
X130137426Y-98407853D01*
X130414665Y-98463000D01*
X130697335Y-98463000D01*
X130974574Y-98407853D01*
X131235727Y-98299680D01*
X131470759Y-98142637D01*
X131670637Y-97942759D01*
X131827680Y-97707727D01*
X131935853Y-97446574D01*
X131991000Y-97169335D01*
X131991000Y-96886665D01*
X133947000Y-96886665D01*
X133947000Y-97169335D01*
X134002147Y-97446574D01*
X134110320Y-97707727D01*
X134267363Y-97942759D01*
X134467241Y-98142637D01*
X134702273Y-98299680D01*
X134963426Y-98407853D01*
X135240665Y-98463000D01*
X135523335Y-98463000D01*
X135800574Y-98407853D01*
X136061727Y-98299680D01*
X136296759Y-98142637D01*
X136496637Y-97942759D01*
X136653680Y-97707727D01*
X136682193Y-97638890D01*
X157308524Y-97638890D01*
X157353175Y-97786099D01*
X157478359Y-98048920D01*
X157652412Y-98282269D01*
X157868645Y-98477178D01*
X158118748Y-98626157D01*
X158393109Y-98723481D01*
X158623000Y-98602814D01*
X158623000Y-97409000D01*
X158877000Y-97409000D01*
X158877000Y-98602814D01*
X159106891Y-98723481D01*
X159381252Y-98626157D01*
X159631355Y-98477178D01*
X159847588Y-98282269D01*
X160021641Y-98048920D01*
X160146825Y-97786099D01*
X160191476Y-97638890D01*
X160070155Y-97409000D01*
X158877000Y-97409000D01*
X158623000Y-97409000D01*
X157429845Y-97409000D01*
X157308524Y-97638890D01*
X136682193Y-97638890D01*
X136761853Y-97446574D01*
X136817000Y-97169335D01*
X136817000Y-96886665D01*
X136761853Y-96609426D01*
X136653680Y-96348273D01*
X136496637Y-96113241D01*
X136296759Y-95913363D01*
X136061727Y-95756320D01*
X135800574Y-95648147D01*
X135523335Y-95593000D01*
X135240665Y-95593000D01*
X134963426Y-95648147D01*
X134702273Y-95756320D01*
X134467241Y-95913363D01*
X134267363Y-96113241D01*
X134110320Y-96348273D01*
X134002147Y-96609426D01*
X133947000Y-96886665D01*
X131991000Y-96886665D01*
X131935853Y-96609426D01*
X131827680Y-96348273D01*
X131670637Y-96113241D01*
X131470759Y-95913363D01*
X131235727Y-95756320D01*
X130974574Y-95648147D01*
X130697335Y-95593000D01*
X130414665Y-95593000D01*
X130219295Y-95631862D01*
X130218276Y-95631026D01*
X130086247Y-95560454D01*
X129942986Y-95516997D01*
X129831333Y-95506000D01*
X129831322Y-95506000D01*
X129794000Y-95502324D01*
X129756678Y-95506000D01*
X127770178Y-95506000D01*
X127645475Y-95319368D01*
X127513620Y-95187513D01*
X127586180Y-95165502D01*
X127696494Y-95106537D01*
X127793185Y-95027185D01*
X127872537Y-94930494D01*
X127931502Y-94820180D01*
X127967812Y-94700482D01*
X127980072Y-94576000D01*
X127980072Y-94486137D01*
X128016000Y-94489676D01*
X128053322Y-94486000D01*
X128053333Y-94486000D01*
X128164986Y-94475003D01*
X128308247Y-94431546D01*
X128440276Y-94360974D01*
X128556001Y-94266001D01*
X128579804Y-94236997D01*
X131067009Y-91749794D01*
X131096001Y-91726001D01*
X131119795Y-91697008D01*
X131119799Y-91697004D01*
X131190973Y-91610277D01*
X131190974Y-91610276D01*
X131261546Y-91478247D01*
X131305003Y-91334986D01*
X131316000Y-91223333D01*
X131316000Y-91223324D01*
X131319676Y-91186001D01*
X131316000Y-91148678D01*
X131316000Y-90626043D01*
X131470759Y-90522637D01*
X131670637Y-90322759D01*
X131827680Y-90087727D01*
X131935853Y-89826574D01*
X131991000Y-89549335D01*
X131991000Y-89377802D01*
X132532201Y-89919003D01*
X132555999Y-89948001D01*
X132671724Y-90042974D01*
X132803753Y-90113546D01*
X132947014Y-90157003D01*
X133058667Y-90168000D01*
X133058676Y-90168000D01*
X133095999Y-90171676D01*
X133133322Y-90168000D01*
X134163957Y-90168000D01*
X134267363Y-90322759D01*
X134467241Y-90522637D01*
X134702273Y-90679680D01*
X134963426Y-90787853D01*
X135240665Y-90843000D01*
X135523335Y-90843000D01*
X135800574Y-90787853D01*
X136061727Y-90679680D01*
X136296759Y-90522637D01*
X136496637Y-90322759D01*
X136653680Y-90087727D01*
X136761853Y-89826574D01*
X136817000Y-89549335D01*
X136817000Y-89266665D01*
X136761853Y-88989426D01*
X136653680Y-88728273D01*
X136496637Y-88493241D01*
X136296759Y-88293363D01*
X136061727Y-88136320D01*
X135800574Y-88028147D01*
X135523335Y-87973000D01*
X135240665Y-87973000D01*
X134963426Y-88028147D01*
X134702273Y-88136320D01*
X134467241Y-88293363D01*
X134267363Y-88493241D01*
X134163957Y-88648000D01*
X133410802Y-88648000D01*
X129203467Y-84440665D01*
X130645000Y-84440665D01*
X130645000Y-84723335D01*
X130700147Y-85000574D01*
X130808320Y-85261727D01*
X130965363Y-85496759D01*
X131165241Y-85696637D01*
X131400273Y-85853680D01*
X131661426Y-85961853D01*
X131938665Y-86017000D01*
X132221335Y-86017000D01*
X132498574Y-85961853D01*
X132759727Y-85853680D01*
X132994759Y-85696637D01*
X133194637Y-85496759D01*
X133351680Y-85261727D01*
X133459853Y-85000574D01*
X133515000Y-84723335D01*
X133515000Y-84440665D01*
X133478688Y-84258114D01*
X133607003Y-84129799D01*
X133636001Y-84106001D01*
X133700007Y-84028010D01*
X133730974Y-83990277D01*
X133801546Y-83858247D01*
X133801621Y-83858000D01*
X133845003Y-83714986D01*
X133856000Y-83603333D01*
X133856000Y-83603323D01*
X133859676Y-83566000D01*
X133856000Y-83528678D01*
X133856000Y-80736072D01*
X133946000Y-80736072D01*
X134070482Y-80723812D01*
X134190180Y-80687502D01*
X134300494Y-80628537D01*
X134397185Y-80549185D01*
X134476537Y-80452494D01*
X134535502Y-80342180D01*
X134557513Y-80269620D01*
X134689368Y-80401475D01*
X134872927Y-80524125D01*
X134876001Y-80555333D01*
X134886998Y-80666986D01*
X134900180Y-80710442D01*
X134930454Y-80810246D01*
X135001026Y-80942276D01*
X135072201Y-81029002D01*
X135096000Y-81058001D01*
X135124998Y-81081799D01*
X138301312Y-84258114D01*
X138265000Y-84440665D01*
X138265000Y-84723335D01*
X138320147Y-85000574D01*
X138428320Y-85261727D01*
X138585363Y-85496759D01*
X138785241Y-85696637D01*
X139020273Y-85853680D01*
X139281426Y-85961853D01*
X139558665Y-86017000D01*
X139841335Y-86017000D01*
X140118574Y-85961853D01*
X140379727Y-85853680D01*
X140614759Y-85696637D01*
X140814637Y-85496759D01*
X140971680Y-85261727D01*
X141079853Y-85000574D01*
X141135000Y-84723335D01*
X141135000Y-84440665D01*
X141079853Y-84163426D01*
X140971680Y-83902273D01*
X140814637Y-83667241D01*
X140614759Y-83467363D01*
X140379727Y-83310320D01*
X140118574Y-83202147D01*
X139841335Y-83147000D01*
X139558665Y-83147000D01*
X139376114Y-83183312D01*
X136588454Y-80395653D01*
X136789475Y-80194632D01*
X136906000Y-80020240D01*
X137022525Y-80194632D01*
X137229368Y-80401475D01*
X137472589Y-80563990D01*
X137742842Y-80675932D01*
X138029740Y-80733000D01*
X138322260Y-80733000D01*
X138568597Y-80684000D01*
X142529928Y-80684000D01*
X142529928Y-82384000D01*
X142542188Y-82508482D01*
X142578498Y-82628180D01*
X142637463Y-82738494D01*
X142716815Y-82835185D01*
X142813506Y-82914537D01*
X142923820Y-82973502D01*
X142996380Y-82995513D01*
X142864525Y-83127368D01*
X142702010Y-83370589D01*
X142590068Y-83640842D01*
X142533000Y-83927740D01*
X142533000Y-84220260D01*
X142590068Y-84507158D01*
X142702010Y-84777411D01*
X142864525Y-85020632D01*
X143071368Y-85227475D01*
X143245760Y-85344000D01*
X143071368Y-85460525D01*
X142864525Y-85667368D01*
X142702010Y-85910589D01*
X142590068Y-86180842D01*
X142533000Y-86467740D01*
X142533000Y-86760260D01*
X142590068Y-87047158D01*
X142702010Y-87317411D01*
X142864525Y-87560632D01*
X143071368Y-87767475D01*
X143245760Y-87884000D01*
X143071368Y-88000525D01*
X142864525Y-88207368D01*
X142702010Y-88450589D01*
X142590068Y-88720842D01*
X142533000Y-89007740D01*
X142533000Y-89300260D01*
X142590068Y-89587158D01*
X142702010Y-89857411D01*
X142864525Y-90100632D01*
X143071368Y-90307475D01*
X143245760Y-90424000D01*
X143071368Y-90540525D01*
X142864525Y-90747368D01*
X142702010Y-90990589D01*
X142590068Y-91260842D01*
X142533000Y-91547740D01*
X142533000Y-91840260D01*
X142590068Y-92127158D01*
X142702010Y-92397411D01*
X142864525Y-92640632D01*
X143071368Y-92847475D01*
X143245760Y-92964000D01*
X143071368Y-93080525D01*
X142864525Y-93287368D01*
X142702010Y-93530589D01*
X142590068Y-93800842D01*
X142533000Y-94087740D01*
X142533000Y-94380260D01*
X142590068Y-94667158D01*
X142702010Y-94937411D01*
X142864525Y-95180632D01*
X143071368Y-95387475D01*
X143314589Y-95549990D01*
X143584842Y-95661932D01*
X143871740Y-95719000D01*
X144164260Y-95719000D01*
X144451158Y-95661932D01*
X144721411Y-95549990D01*
X144964632Y-95387475D01*
X145171475Y-95180632D01*
X145226093Y-95098890D01*
X157308524Y-95098890D01*
X157353175Y-95246099D01*
X157478359Y-95508920D01*
X157652412Y-95742269D01*
X157868645Y-95937178D01*
X157994255Y-96012000D01*
X157868645Y-96086822D01*
X157652412Y-96281731D01*
X157478359Y-96515080D01*
X157353175Y-96777901D01*
X157308524Y-96925110D01*
X157429845Y-97155000D01*
X158623000Y-97155000D01*
X158623000Y-94869000D01*
X158877000Y-94869000D01*
X158877000Y-97155000D01*
X160070155Y-97155000D01*
X160191476Y-96925110D01*
X160146825Y-96777901D01*
X160021641Y-96515080D01*
X159847588Y-96281731D01*
X159631355Y-96086822D01*
X159505745Y-96012000D01*
X159631355Y-95937178D01*
X159847588Y-95742269D01*
X160021641Y-95508920D01*
X160146825Y-95246099D01*
X160191476Y-95098890D01*
X160070155Y-94869000D01*
X158877000Y-94869000D01*
X158623000Y-94869000D01*
X157429845Y-94869000D01*
X157308524Y-95098890D01*
X145226093Y-95098890D01*
X145333990Y-94937411D01*
X145445932Y-94667158D01*
X145503000Y-94380260D01*
X145503000Y-94087740D01*
X145445932Y-93800842D01*
X145333990Y-93530589D01*
X145171475Y-93287368D01*
X144964632Y-93080525D01*
X144790240Y-92964000D01*
X144964632Y-92847475D01*
X145171475Y-92640632D01*
X145226093Y-92558890D01*
X157308524Y-92558890D01*
X157353175Y-92706099D01*
X157478359Y-92968920D01*
X157652412Y-93202269D01*
X157868645Y-93397178D01*
X157994255Y-93472000D01*
X157868645Y-93546822D01*
X157652412Y-93741731D01*
X157478359Y-93975080D01*
X157353175Y-94237901D01*
X157308524Y-94385110D01*
X157429845Y-94615000D01*
X158623000Y-94615000D01*
X158623000Y-92329000D01*
X158877000Y-92329000D01*
X158877000Y-94615000D01*
X160070155Y-94615000D01*
X160191476Y-94385110D01*
X160146825Y-94237901D01*
X160021641Y-93975080D01*
X159847588Y-93741731D01*
X159631355Y-93546822D01*
X159505745Y-93472000D01*
X159631355Y-93397178D01*
X159847588Y-93202269D01*
X160021641Y-92968920D01*
X160146825Y-92706099D01*
X160191476Y-92558890D01*
X160070155Y-92329000D01*
X158877000Y-92329000D01*
X158623000Y-92329000D01*
X157429845Y-92329000D01*
X157308524Y-92558890D01*
X145226093Y-92558890D01*
X145333990Y-92397411D01*
X145445932Y-92127158D01*
X145503000Y-91840260D01*
X145503000Y-91547740D01*
X145445932Y-91260842D01*
X145333990Y-90990589D01*
X145171475Y-90747368D01*
X144964632Y-90540525D01*
X144790240Y-90424000D01*
X144964632Y-90307475D01*
X145171475Y-90100632D01*
X145226093Y-90018890D01*
X157308524Y-90018890D01*
X157353175Y-90166099D01*
X157478359Y-90428920D01*
X157652412Y-90662269D01*
X157868645Y-90857178D01*
X157994255Y-90932000D01*
X157868645Y-91006822D01*
X157652412Y-91201731D01*
X157478359Y-91435080D01*
X157353175Y-91697901D01*
X157308524Y-91845110D01*
X157429845Y-92075000D01*
X158623000Y-92075000D01*
X158623000Y-89789000D01*
X158877000Y-89789000D01*
X158877000Y-92075000D01*
X160070155Y-92075000D01*
X160191476Y-91845110D01*
X160146825Y-91697901D01*
X160021641Y-91435080D01*
X159847588Y-91201731D01*
X159631355Y-91006822D01*
X159505745Y-90932000D01*
X159631355Y-90857178D01*
X159847588Y-90662269D01*
X160021641Y-90428920D01*
X160146825Y-90166099D01*
X160191476Y-90018890D01*
X160070155Y-89789000D01*
X158877000Y-89789000D01*
X158623000Y-89789000D01*
X157429845Y-89789000D01*
X157308524Y-90018890D01*
X145226093Y-90018890D01*
X145333990Y-89857411D01*
X145445932Y-89587158D01*
X145503000Y-89300260D01*
X145503000Y-89007740D01*
X145445932Y-88720842D01*
X145333990Y-88450589D01*
X145171475Y-88207368D01*
X144964632Y-88000525D01*
X144790240Y-87884000D01*
X144964632Y-87767475D01*
X145171475Y-87560632D01*
X145226093Y-87478890D01*
X157308524Y-87478890D01*
X157353175Y-87626099D01*
X157478359Y-87888920D01*
X157652412Y-88122269D01*
X157868645Y-88317178D01*
X157994255Y-88392000D01*
X157868645Y-88466822D01*
X157652412Y-88661731D01*
X157478359Y-88895080D01*
X157353175Y-89157901D01*
X157308524Y-89305110D01*
X157429845Y-89535000D01*
X158623000Y-89535000D01*
X158623000Y-87249000D01*
X158877000Y-87249000D01*
X158877000Y-89535000D01*
X160070155Y-89535000D01*
X160191476Y-89305110D01*
X160146825Y-89157901D01*
X160021641Y-88895080D01*
X159847588Y-88661731D01*
X159631355Y-88466822D01*
X159505745Y-88392000D01*
X159631355Y-88317178D01*
X159847588Y-88122269D01*
X160021641Y-87888920D01*
X160146825Y-87626099D01*
X160191476Y-87478890D01*
X160070155Y-87249000D01*
X158877000Y-87249000D01*
X158623000Y-87249000D01*
X157429845Y-87249000D01*
X157308524Y-87478890D01*
X145226093Y-87478890D01*
X145333990Y-87317411D01*
X145445932Y-87047158D01*
X145503000Y-86760260D01*
X145503000Y-86467740D01*
X145445932Y-86180842D01*
X145333990Y-85910589D01*
X145171475Y-85667368D01*
X144964632Y-85460525D01*
X144921942Y-85432000D01*
X157261928Y-85432000D01*
X157274188Y-85556482D01*
X157310498Y-85676180D01*
X157369463Y-85786494D01*
X157448815Y-85883185D01*
X157545506Y-85962537D01*
X157655820Y-86021502D01*
X157736466Y-86045966D01*
X157652412Y-86121731D01*
X157478359Y-86355080D01*
X157353175Y-86617901D01*
X157308524Y-86765110D01*
X157429845Y-86995000D01*
X158623000Y-86995000D01*
X158623000Y-84709000D01*
X158877000Y-84709000D01*
X158877000Y-86995000D01*
X160070155Y-86995000D01*
X160191476Y-86765110D01*
X160146825Y-86617901D01*
X160021641Y-86355080D01*
X159847588Y-86121731D01*
X159763534Y-86045966D01*
X159844180Y-86021502D01*
X159954494Y-85962537D01*
X160051185Y-85883185D01*
X160130537Y-85786494D01*
X160189502Y-85676180D01*
X160225812Y-85556482D01*
X160238072Y-85432000D01*
X160235000Y-84867750D01*
X160076250Y-84709000D01*
X158877000Y-84709000D01*
X158623000Y-84709000D01*
X157423750Y-84709000D01*
X157265000Y-84867750D01*
X157261928Y-85432000D01*
X144921942Y-85432000D01*
X144790240Y-85344000D01*
X144964632Y-85227475D01*
X145171475Y-85020632D01*
X145333990Y-84777411D01*
X145445932Y-84507158D01*
X145503000Y-84220260D01*
X145503000Y-83927740D01*
X145445932Y-83640842D01*
X145333990Y-83370589D01*
X145171475Y-83127368D01*
X145039620Y-82995513D01*
X145112180Y-82973502D01*
X145218512Y-82916665D01*
X148719000Y-82916665D01*
X148719000Y-83199335D01*
X148774147Y-83476574D01*
X148882320Y-83737727D01*
X149039363Y-83972759D01*
X149239241Y-84172637D01*
X149474273Y-84329680D01*
X149735426Y-84437853D01*
X150012665Y-84493000D01*
X150295335Y-84493000D01*
X150572574Y-84437853D01*
X150833727Y-84329680D01*
X151068759Y-84172637D01*
X151235339Y-84006057D01*
X151264498Y-84102180D01*
X151323463Y-84212494D01*
X151402815Y-84309185D01*
X151499506Y-84388537D01*
X151609820Y-84447502D01*
X151729518Y-84483812D01*
X151854000Y-84496072D01*
X152368250Y-84493000D01*
X152527000Y-84334250D01*
X152527000Y-83185000D01*
X152781000Y-83185000D01*
X152781000Y-84334250D01*
X152939750Y-84493000D01*
X153454000Y-84496072D01*
X153578482Y-84483812D01*
X153698180Y-84447502D01*
X153808494Y-84388537D01*
X153905185Y-84309185D01*
X153984537Y-84212494D01*
X154043502Y-84102180D01*
X154079812Y-83982482D01*
X154092072Y-83858000D01*
X154091320Y-83732000D01*
X157261928Y-83732000D01*
X157265000Y-84296250D01*
X157423750Y-84455000D01*
X158623000Y-84455000D01*
X158623000Y-83255750D01*
X158877000Y-83255750D01*
X158877000Y-84455000D01*
X160076250Y-84455000D01*
X160235000Y-84296250D01*
X160238072Y-83732000D01*
X160225812Y-83607518D01*
X160189502Y-83487820D01*
X160130537Y-83377506D01*
X160051185Y-83280815D01*
X159954494Y-83201463D01*
X159844180Y-83142498D01*
X159724482Y-83106188D01*
X159600000Y-83093928D01*
X159035750Y-83097000D01*
X158877000Y-83255750D01*
X158623000Y-83255750D01*
X158464250Y-83097000D01*
X157900000Y-83093928D01*
X157775518Y-83106188D01*
X157655820Y-83142498D01*
X157545506Y-83201463D01*
X157448815Y-83280815D01*
X157369463Y-83377506D01*
X157310498Y-83487820D01*
X157274188Y-83607518D01*
X157261928Y-83732000D01*
X154091320Y-83732000D01*
X154089000Y-83343750D01*
X153930250Y-83185000D01*
X152781000Y-83185000D01*
X152527000Y-83185000D01*
X152507000Y-83185000D01*
X152507000Y-82931000D01*
X152527000Y-82931000D01*
X152527000Y-81781750D01*
X152781000Y-81781750D01*
X152781000Y-82931000D01*
X153930250Y-82931000D01*
X154089000Y-82772250D01*
X154092072Y-82258000D01*
X154079812Y-82133518D01*
X154043502Y-82013820D01*
X153984537Y-81903506D01*
X153905185Y-81806815D01*
X153808494Y-81727463D01*
X153698180Y-81668498D01*
X153578482Y-81632188D01*
X153454000Y-81619928D01*
X152939750Y-81623000D01*
X152781000Y-81781750D01*
X152527000Y-81781750D01*
X152368250Y-81623000D01*
X151854000Y-81619928D01*
X151729518Y-81632188D01*
X151609820Y-81668498D01*
X151499506Y-81727463D01*
X151402815Y-81806815D01*
X151323463Y-81903506D01*
X151264498Y-82013820D01*
X151235339Y-82109943D01*
X151068759Y-81943363D01*
X150833727Y-81786320D01*
X150572574Y-81678147D01*
X150295335Y-81623000D01*
X150012665Y-81623000D01*
X149735426Y-81678147D01*
X149474273Y-81786320D01*
X149239241Y-81943363D01*
X149039363Y-82143241D01*
X148882320Y-82378273D01*
X148774147Y-82639426D01*
X148719000Y-82916665D01*
X145218512Y-82916665D01*
X145222494Y-82914537D01*
X145319185Y-82835185D01*
X145398537Y-82738494D01*
X145457502Y-82628180D01*
X145493812Y-82508482D01*
X145506072Y-82384000D01*
X145506072Y-80684000D01*
X145493812Y-80559518D01*
X145457502Y-80439820D01*
X145398537Y-80329506D01*
X145319185Y-80232815D01*
X145222494Y-80153463D01*
X145112180Y-80094498D01*
X144992482Y-80058188D01*
X144868000Y-80045928D01*
X143168000Y-80045928D01*
X143043518Y-80058188D01*
X142923820Y-80094498D01*
X142813506Y-80153463D01*
X142716815Y-80232815D01*
X142637463Y-80329506D01*
X142578498Y-80439820D01*
X142542188Y-80559518D01*
X142529928Y-80684000D01*
X138568597Y-80684000D01*
X138609158Y-80675932D01*
X138879411Y-80563990D01*
X139122632Y-80401475D01*
X139329475Y-80194632D01*
X139491990Y-79951411D01*
X139603932Y-79681158D01*
X139661000Y-79394260D01*
X139661000Y-79101740D01*
X139657082Y-79082042D01*
X160367000Y-79082042D01*
X160367000Y-79413958D01*
X160431754Y-79739496D01*
X160558772Y-80046147D01*
X160743175Y-80322125D01*
X160977875Y-80556825D01*
X161253853Y-80741228D01*
X161560504Y-80868246D01*
X161886042Y-80933000D01*
X162217958Y-80933000D01*
X162543496Y-80868246D01*
X162850147Y-80741228D01*
X163126125Y-80556825D01*
X163360825Y-80322125D01*
X163545228Y-80046147D01*
X163672246Y-79739496D01*
X163737000Y-79413958D01*
X163737000Y-79082042D01*
X163672246Y-78756504D01*
X163545228Y-78449853D01*
X163360825Y-78173875D01*
X163126125Y-77939175D01*
X162850147Y-77754772D01*
X162543496Y-77627754D01*
X162217958Y-77563000D01*
X161886042Y-77563000D01*
X161560504Y-77627754D01*
X161253853Y-77754772D01*
X160977875Y-77939175D01*
X160743175Y-78173875D01*
X160558772Y-78449853D01*
X160431754Y-78756504D01*
X160367000Y-79082042D01*
X139657082Y-79082042D01*
X139603932Y-78814842D01*
X139491990Y-78544589D01*
X139329475Y-78301368D01*
X139122632Y-78094525D01*
X138879411Y-77932010D01*
X138609158Y-77820068D01*
X138322260Y-77763000D01*
X138029740Y-77763000D01*
X137742842Y-77820068D01*
X137472589Y-77932010D01*
X137229368Y-78094525D01*
X137022525Y-78301368D01*
X136906000Y-78475760D01*
X136789475Y-78301368D01*
X136582632Y-78094525D01*
X136339411Y-77932010D01*
X136069158Y-77820068D01*
X135782260Y-77763000D01*
X135489740Y-77763000D01*
X135202842Y-77820068D01*
X134932589Y-77932010D01*
X134689368Y-78094525D01*
X134557513Y-78226380D01*
X134535502Y-78153820D01*
X134476537Y-78043506D01*
X134397185Y-77946815D01*
X134300494Y-77867463D01*
X134190180Y-77808498D01*
X134070482Y-77772188D01*
X133946000Y-77759928D01*
X132246000Y-77759928D01*
X132121518Y-77772188D01*
X132001820Y-77808498D01*
X131891506Y-77867463D01*
X131794815Y-77946815D01*
X131715463Y-78043506D01*
X131656498Y-78153820D01*
X131620188Y-78273518D01*
X131607928Y-78398000D01*
X131607928Y-80098000D01*
X131620188Y-80222482D01*
X131656498Y-80342180D01*
X131715463Y-80452494D01*
X131794815Y-80549185D01*
X131891506Y-80628537D01*
X132001820Y-80687502D01*
X132121518Y-80723812D01*
X132246000Y-80736072D01*
X132336000Y-80736072D01*
X132336001Y-83169809D01*
X132221335Y-83147000D01*
X131938665Y-83147000D01*
X131661426Y-83202147D01*
X131400273Y-83310320D01*
X131165241Y-83467363D01*
X130965363Y-83667241D01*
X130808320Y-83902273D01*
X130700147Y-84163426D01*
X130645000Y-84440665D01*
X129203467Y-84440665D01*
X127933209Y-83170408D01*
X127977000Y-82950260D01*
X127977000Y-82657740D01*
X127919932Y-82370842D01*
X127807990Y-82100589D01*
X127645475Y-81857368D01*
X127438632Y-81650525D01*
X127264240Y-81534000D01*
X127438632Y-81417475D01*
X127645475Y-81210632D01*
X127807990Y-80967411D01*
X127919932Y-80697158D01*
X127977000Y-80410260D01*
X127977000Y-80117740D01*
X127919932Y-79830842D01*
X127807990Y-79560589D01*
X127645475Y-79317368D01*
X127438632Y-79110525D01*
X127195411Y-78948010D01*
X126925158Y-78836068D01*
X126638260Y-78779000D01*
X126345740Y-78779000D01*
X126058842Y-78836068D01*
X125788589Y-78948010D01*
X125545368Y-79110525D01*
X125338525Y-79317368D01*
X125176010Y-79560589D01*
X125064068Y-79830842D01*
X125007000Y-80117740D01*
X125007000Y-80410260D01*
X125064068Y-80697158D01*
X125176010Y-80967411D01*
X125338525Y-81210632D01*
X125545368Y-81417475D01*
X125719760Y-81534000D01*
X125545368Y-81650525D01*
X125338525Y-81857368D01*
X125176010Y-82100589D01*
X125064068Y-82370842D01*
X125007000Y-82657740D01*
X125007000Y-82950260D01*
X125064068Y-83237158D01*
X125176010Y-83507411D01*
X125338525Y-83750632D01*
X125545368Y-83957475D01*
X125719760Y-84074000D01*
X125545368Y-84190525D01*
X125338525Y-84397368D01*
X125176010Y-84640589D01*
X125064068Y-84910842D01*
X125007000Y-85197740D01*
X125007000Y-85490260D01*
X125064068Y-85777158D01*
X125176010Y-86047411D01*
X125338525Y-86290632D01*
X125470380Y-86422487D01*
X125397820Y-86444498D01*
X125287506Y-86503463D01*
X125190815Y-86582815D01*
X125111463Y-86679506D01*
X125052498Y-86789820D01*
X125016188Y-86909518D01*
X125003928Y-87034000D01*
X122567700Y-87034000D01*
X122567700Y-76847700D01*
X164452300Y-76847700D01*
X164452301Y-111112300D01*
G37*
%TD.AperFunction*%
%TD*%
M02*
