M48
; DRILL file {KiCad (5.1.10)-1} date 06/21/21 00:52:32
; FORMAT={-:-/ absolute / inch / decimal}
; #@! TF.CreationDate,2021-06-21T00:52:32-07:00
; #@! TF.GenerationSoftware,Kicad,Pcbnew,(5.1.10)-1
; #@! TF.FileFunction,Plated,1,2,PTH
FMAT,2
INCH
T1C0.0315
T2C0.0394
%
G90
G05
T1
X5.14Y-3.52
X5.14Y-3.82
X5.2Y-3.33
X5.33Y-3.52
X5.33Y-3.82
X5.5Y-3.33
X5.65Y-3.93
X5.65Y-4.23
X5.9116Y-3.27
X6.01Y-3.27
T2
X4.98Y-3.16
X4.98Y-3.26
X4.98Y-3.36
X4.98Y-3.46
X4.98Y-3.69
X4.98Y-3.79
X5.24Y-3.12
X5.34Y-3.12
X5.44Y-3.12
X5.67Y-3.21
X5.67Y-3.31
X5.67Y-3.41
X5.67Y-3.51
X5.67Y-3.61
X5.67Y-3.71
X6.25Y-3.33
X6.25Y-3.43
X6.25Y-3.53
X6.25Y-3.63
X6.25Y-3.73
X6.25Y-3.83
T2
G00X5.1338Y-4.1794
M15
G01X5.1338Y-4.1006
M16
G05
G00X5.37Y-4.1892
M15
G01X5.37Y-4.0908
M16
G05
G00X5.93Y-4.0908
M15
G01X5.93Y-4.1892
M16
G05
G00X6.1662Y-4.1006
M15
G01X6.1662Y-4.1794
M16
G05
T0
M30
