%TF.GenerationSoftware,KiCad,Pcbnew,(5.1.10)-1*%
%TF.CreationDate,2021-06-21T00:52:30-07:00*%
%TF.ProjectId,LED Matrix,4c454420-4d61-4747-9269-782e6b696361,v01*%
%TF.SameCoordinates,Original*%
%TF.FileFunction,Legend,Top*%
%TF.FilePolarity,Positive*%
%FSLAX46Y46*%
G04 Gerber Fmt 4.6, Leading zero omitted, Abs format (unit mm)*
G04 Created by KiCad (PCBNEW (5.1.10)-1) date 2021-06-21 00:52:30*
%MOMM*%
%LPD*%
G01*
G04 APERTURE LIST*
%ADD10C,0.150000*%
%ADD11C,0.120000*%
%ADD12C,0.300000*%
%ADD13C,0.127000*%
G04 APERTURE END LIST*
D10*
X155146666Y-77017619D02*
X155194285Y-76970000D01*
X155289523Y-76922380D01*
X155527619Y-76922380D01*
X155622857Y-76970000D01*
X155670476Y-77017619D01*
X155718095Y-77112857D01*
X155718095Y-77208095D01*
X155670476Y-77350952D01*
X155099047Y-77922380D01*
X155718095Y-77922380D01*
X156146666Y-77827142D02*
X156194285Y-77874761D01*
X156146666Y-77922380D01*
X156099047Y-77874761D01*
X156146666Y-77827142D01*
X156146666Y-77922380D01*
X157146666Y-77922380D02*
X156575238Y-77922380D01*
X156860952Y-77922380D02*
X156860952Y-76922380D01*
X156765714Y-77065238D01*
X156670476Y-77160476D01*
X156575238Y-77208095D01*
X157575238Y-77922380D02*
X157575238Y-77255714D01*
X157575238Y-77350952D02*
X157622857Y-77303333D01*
X157718095Y-77255714D01*
X157860952Y-77255714D01*
X157956190Y-77303333D01*
X158003809Y-77398571D01*
X158003809Y-77922380D01*
X158003809Y-77398571D02*
X158051428Y-77303333D01*
X158146666Y-77255714D01*
X158289523Y-77255714D01*
X158384761Y-77303333D01*
X158432380Y-77398571D01*
X158432380Y-77922380D01*
X158908571Y-77922380D02*
X158908571Y-77255714D01*
X158908571Y-77350952D02*
X158956190Y-77303333D01*
X159051428Y-77255714D01*
X159194285Y-77255714D01*
X159289523Y-77303333D01*
X159337142Y-77398571D01*
X159337142Y-77922380D01*
X159337142Y-77398571D02*
X159384761Y-77303333D01*
X159480000Y-77255714D01*
X159622857Y-77255714D01*
X159718095Y-77303333D01*
X159765714Y-77398571D01*
X159765714Y-77922380D01*
D11*
%TO.C,C1*%
X155524000Y-83058000D02*
G75*
G03*
X155524000Y-83058000I-4120000J0D01*
G01*
X151404000Y-87138000D02*
X151404000Y-78978000D01*
X151364000Y-87138000D02*
X151364000Y-78978000D01*
X151324000Y-87138000D02*
X151324000Y-78978000D01*
X151284000Y-87137000D02*
X151284000Y-78979000D01*
X151244000Y-87135000D02*
X151244000Y-78981000D01*
X151204000Y-87134000D02*
X151204000Y-78982000D01*
X151164000Y-87132000D02*
X151164000Y-84098000D01*
X151164000Y-82018000D02*
X151164000Y-78984000D01*
X151124000Y-87129000D02*
X151124000Y-84098000D01*
X151124000Y-82018000D02*
X151124000Y-78987000D01*
X151084000Y-87126000D02*
X151084000Y-84098000D01*
X151084000Y-82018000D02*
X151084000Y-78990000D01*
X151044000Y-87123000D02*
X151044000Y-84098000D01*
X151044000Y-82018000D02*
X151044000Y-78993000D01*
X151004000Y-87119000D02*
X151004000Y-84098000D01*
X151004000Y-82018000D02*
X151004000Y-78997000D01*
X150964000Y-87115000D02*
X150964000Y-84098000D01*
X150964000Y-82018000D02*
X150964000Y-79001000D01*
X150924000Y-87110000D02*
X150924000Y-84098000D01*
X150924000Y-82018000D02*
X150924000Y-79006000D01*
X150884000Y-87106000D02*
X150884000Y-84098000D01*
X150884000Y-82018000D02*
X150884000Y-79010000D01*
X150844000Y-87100000D02*
X150844000Y-84098000D01*
X150844000Y-82018000D02*
X150844000Y-79016000D01*
X150804000Y-87095000D02*
X150804000Y-84098000D01*
X150804000Y-82018000D02*
X150804000Y-79021000D01*
X150764000Y-87088000D02*
X150764000Y-84098000D01*
X150764000Y-82018000D02*
X150764000Y-79028000D01*
X150724000Y-87082000D02*
X150724000Y-84098000D01*
X150724000Y-82018000D02*
X150724000Y-79034000D01*
X150683000Y-87075000D02*
X150683000Y-84098000D01*
X150683000Y-82018000D02*
X150683000Y-79041000D01*
X150643000Y-87068000D02*
X150643000Y-84098000D01*
X150643000Y-82018000D02*
X150643000Y-79048000D01*
X150603000Y-87060000D02*
X150603000Y-84098000D01*
X150603000Y-82018000D02*
X150603000Y-79056000D01*
X150563000Y-87052000D02*
X150563000Y-84098000D01*
X150563000Y-82018000D02*
X150563000Y-79064000D01*
X150523000Y-87043000D02*
X150523000Y-84098000D01*
X150523000Y-82018000D02*
X150523000Y-79073000D01*
X150483000Y-87034000D02*
X150483000Y-84098000D01*
X150483000Y-82018000D02*
X150483000Y-79082000D01*
X150443000Y-87025000D02*
X150443000Y-84098000D01*
X150443000Y-82018000D02*
X150443000Y-79091000D01*
X150403000Y-87015000D02*
X150403000Y-84098000D01*
X150403000Y-82018000D02*
X150403000Y-79101000D01*
X150363000Y-87005000D02*
X150363000Y-84098000D01*
X150363000Y-82018000D02*
X150363000Y-79111000D01*
X150323000Y-86994000D02*
X150323000Y-84098000D01*
X150323000Y-82018000D02*
X150323000Y-79122000D01*
X150283000Y-86983000D02*
X150283000Y-84098000D01*
X150283000Y-82018000D02*
X150283000Y-79133000D01*
X150243000Y-86972000D02*
X150243000Y-84098000D01*
X150243000Y-82018000D02*
X150243000Y-79144000D01*
X150203000Y-86960000D02*
X150203000Y-84098000D01*
X150203000Y-82018000D02*
X150203000Y-79156000D01*
X150163000Y-86947000D02*
X150163000Y-84098000D01*
X150163000Y-82018000D02*
X150163000Y-79169000D01*
X150123000Y-86935000D02*
X150123000Y-84098000D01*
X150123000Y-82018000D02*
X150123000Y-79181000D01*
X150083000Y-86921000D02*
X150083000Y-84098000D01*
X150083000Y-82018000D02*
X150083000Y-79195000D01*
X150043000Y-86908000D02*
X150043000Y-84098000D01*
X150043000Y-82018000D02*
X150043000Y-79208000D01*
X150003000Y-86893000D02*
X150003000Y-84098000D01*
X150003000Y-82018000D02*
X150003000Y-79223000D01*
X149963000Y-86879000D02*
X149963000Y-84098000D01*
X149963000Y-82018000D02*
X149963000Y-79237000D01*
X149923000Y-86863000D02*
X149923000Y-84098000D01*
X149923000Y-82018000D02*
X149923000Y-79253000D01*
X149883000Y-86848000D02*
X149883000Y-84098000D01*
X149883000Y-82018000D02*
X149883000Y-79268000D01*
X149843000Y-86832000D02*
X149843000Y-84098000D01*
X149843000Y-82018000D02*
X149843000Y-79284000D01*
X149803000Y-86815000D02*
X149803000Y-84098000D01*
X149803000Y-82018000D02*
X149803000Y-79301000D01*
X149763000Y-86798000D02*
X149763000Y-84098000D01*
X149763000Y-82018000D02*
X149763000Y-79318000D01*
X149723000Y-86780000D02*
X149723000Y-84098000D01*
X149723000Y-82018000D02*
X149723000Y-79336000D01*
X149683000Y-86762000D02*
X149683000Y-84098000D01*
X149683000Y-82018000D02*
X149683000Y-79354000D01*
X149643000Y-86744000D02*
X149643000Y-84098000D01*
X149643000Y-82018000D02*
X149643000Y-79372000D01*
X149603000Y-86724000D02*
X149603000Y-84098000D01*
X149603000Y-82018000D02*
X149603000Y-79392000D01*
X149563000Y-86705000D02*
X149563000Y-84098000D01*
X149563000Y-82018000D02*
X149563000Y-79411000D01*
X149523000Y-86685000D02*
X149523000Y-84098000D01*
X149523000Y-82018000D02*
X149523000Y-79431000D01*
X149483000Y-86664000D02*
X149483000Y-84098000D01*
X149483000Y-82018000D02*
X149483000Y-79452000D01*
X149443000Y-86642000D02*
X149443000Y-84098000D01*
X149443000Y-82018000D02*
X149443000Y-79474000D01*
X149403000Y-86620000D02*
X149403000Y-84098000D01*
X149403000Y-82018000D02*
X149403000Y-79496000D01*
X149363000Y-86598000D02*
X149363000Y-84098000D01*
X149363000Y-82018000D02*
X149363000Y-79518000D01*
X149323000Y-86575000D02*
X149323000Y-84098000D01*
X149323000Y-82018000D02*
X149323000Y-79541000D01*
X149283000Y-86551000D02*
X149283000Y-84098000D01*
X149283000Y-82018000D02*
X149283000Y-79565000D01*
X149243000Y-86527000D02*
X149243000Y-84098000D01*
X149243000Y-82018000D02*
X149243000Y-79589000D01*
X149203000Y-86502000D02*
X149203000Y-84098000D01*
X149203000Y-82018000D02*
X149203000Y-79614000D01*
X149163000Y-86476000D02*
X149163000Y-84098000D01*
X149163000Y-82018000D02*
X149163000Y-79640000D01*
X149123000Y-86450000D02*
X149123000Y-84098000D01*
X149123000Y-82018000D02*
X149123000Y-79666000D01*
X149083000Y-86423000D02*
X149083000Y-79693000D01*
X149043000Y-86396000D02*
X149043000Y-79720000D01*
X149003000Y-86367000D02*
X149003000Y-79749000D01*
X148963000Y-86338000D02*
X148963000Y-79778000D01*
X148923000Y-86308000D02*
X148923000Y-79808000D01*
X148883000Y-86278000D02*
X148883000Y-79838000D01*
X148843000Y-86247000D02*
X148843000Y-79869000D01*
X148803000Y-86214000D02*
X148803000Y-79902000D01*
X148763000Y-86182000D02*
X148763000Y-79934000D01*
X148723000Y-86148000D02*
X148723000Y-79968000D01*
X148683000Y-86113000D02*
X148683000Y-80003000D01*
X148643000Y-86077000D02*
X148643000Y-80039000D01*
X148603000Y-86041000D02*
X148603000Y-80075000D01*
X148563000Y-86003000D02*
X148563000Y-80113000D01*
X148523000Y-85965000D02*
X148523000Y-80151000D01*
X148483000Y-85925000D02*
X148483000Y-80191000D01*
X148443000Y-85884000D02*
X148443000Y-80232000D01*
X148403000Y-85842000D02*
X148403000Y-80274000D01*
X148363000Y-85799000D02*
X148363000Y-80317000D01*
X148323000Y-85755000D02*
X148323000Y-80361000D01*
X148283000Y-85709000D02*
X148283000Y-80407000D01*
X148243000Y-85662000D02*
X148243000Y-80454000D01*
X148203000Y-85614000D02*
X148203000Y-80502000D01*
X148163000Y-85563000D02*
X148163000Y-80553000D01*
X148123000Y-85512000D02*
X148123000Y-80604000D01*
X148083000Y-85458000D02*
X148083000Y-80658000D01*
X148043000Y-85403000D02*
X148043000Y-80713000D01*
X148003000Y-85345000D02*
X148003000Y-80771000D01*
X147963000Y-85286000D02*
X147963000Y-80830000D01*
X147923000Y-85224000D02*
X147923000Y-80892000D01*
X147883000Y-85160000D02*
X147883000Y-80956000D01*
X147843000Y-85092000D02*
X147843000Y-81024000D01*
X147803000Y-85022000D02*
X147803000Y-81094000D01*
X147763000Y-84948000D02*
X147763000Y-81168000D01*
X147723000Y-84871000D02*
X147723000Y-81245000D01*
X147683000Y-84789000D02*
X147683000Y-81327000D01*
X147643000Y-84703000D02*
X147643000Y-81413000D01*
X147603000Y-84610000D02*
X147603000Y-81506000D01*
X147563000Y-84511000D02*
X147563000Y-81605000D01*
X147523000Y-84404000D02*
X147523000Y-81712000D01*
X147483000Y-84287000D02*
X147483000Y-81829000D01*
X147443000Y-84156000D02*
X147443000Y-81960000D01*
X147403000Y-84006000D02*
X147403000Y-82110000D01*
X147363000Y-83826000D02*
X147363000Y-82290000D01*
X147323000Y-83591000D02*
X147323000Y-82525000D01*
X155813698Y-85373000D02*
X155013698Y-85373000D01*
X155413698Y-85773000D02*
X155413698Y-84973000D01*
D12*
%TO.C,J1*%
X138548000Y-105156000D02*
G75*
G03*
X138548000Y-105156000I-150000J0D01*
G01*
D13*
X137198000Y-107856000D02*
X137198000Y-109656000D01*
X137198000Y-109656000D02*
X122698000Y-109656000D01*
X137198000Y-100656000D02*
X137198000Y-102456000D01*
X122698000Y-100656000D02*
X137198000Y-100656000D01*
X122698000Y-109656000D02*
X122698000Y-100656000D01*
D12*
%TO.C,J2*%
X148772000Y-105156000D02*
G75*
G03*
X148772000Y-105156000I-150000J0D01*
G01*
D13*
X149822000Y-102456000D02*
X149822000Y-100656000D01*
X149822000Y-100656000D02*
X164322000Y-100656000D01*
X149822000Y-109656000D02*
X149822000Y-107856000D01*
X164322000Y-109656000D02*
X149822000Y-109656000D01*
X164322000Y-100656000D02*
X164322000Y-109656000D01*
D11*
%TO.C,J3*%
X157420000Y-98612000D02*
X160080000Y-98612000D01*
X157420000Y-85852000D02*
X157420000Y-98612000D01*
X160080000Y-85852000D02*
X160080000Y-98612000D01*
X157420000Y-85852000D02*
X160080000Y-85852000D01*
X157420000Y-84582000D02*
X157420000Y-83252000D01*
X157420000Y-83252000D02*
X158750000Y-83252000D01*
%TO.C,J4*%
X142688000Y-80204000D02*
X144018000Y-80204000D01*
X142688000Y-81534000D02*
X142688000Y-80204000D01*
X142688000Y-82804000D02*
X145348000Y-82804000D01*
X145348000Y-82804000D02*
X145348000Y-95564000D01*
X142688000Y-82804000D02*
X142688000Y-95564000D01*
X142688000Y-95564000D02*
X145348000Y-95564000D01*
%TO.C,J5*%
X139506000Y-80578000D02*
X139506000Y-77918000D01*
X134366000Y-80578000D02*
X139506000Y-80578000D01*
X134366000Y-77918000D02*
X139506000Y-77918000D01*
X134366000Y-80578000D02*
X134366000Y-77918000D01*
X133096000Y-80578000D02*
X131766000Y-80578000D01*
X131766000Y-80578000D02*
X131766000Y-79248000D01*
%TO.C,J6*%
X125162000Y-97596000D02*
X127822000Y-97596000D01*
X125162000Y-94996000D02*
X125162000Y-97596000D01*
X127822000Y-94996000D02*
X127822000Y-97596000D01*
X125162000Y-94996000D02*
X127822000Y-94996000D01*
X125162000Y-93726000D02*
X125162000Y-92396000D01*
X125162000Y-92396000D02*
X126492000Y-92396000D01*
%TO.C,J7*%
X127822000Y-78934000D02*
X125162000Y-78934000D01*
X127822000Y-86614000D02*
X127822000Y-78934000D01*
X125162000Y-86614000D02*
X125162000Y-78934000D01*
X127822000Y-86614000D02*
X125162000Y-86614000D01*
X127822000Y-87884000D02*
X127822000Y-89214000D01*
X127822000Y-89214000D02*
X126492000Y-89214000D01*
%TO.C,R1*%
X139160000Y-85952000D02*
X139160000Y-85622000D01*
X132620000Y-85952000D02*
X139160000Y-85952000D01*
X132620000Y-85622000D02*
X132620000Y-85952000D01*
X139160000Y-83212000D02*
X139160000Y-83542000D01*
X132620000Y-83212000D02*
X139160000Y-83212000D01*
X132620000Y-83542000D02*
X132620000Y-83212000D01*
%TO.C,R2*%
X131596000Y-89948000D02*
X131926000Y-89948000D01*
X131926000Y-89948000D02*
X131926000Y-96488000D01*
X131926000Y-96488000D02*
X131596000Y-96488000D01*
X129516000Y-89948000D02*
X129186000Y-89948000D01*
X129186000Y-89948000D02*
X129186000Y-96488000D01*
X129186000Y-96488000D02*
X129516000Y-96488000D01*
%TO.C,R3*%
X136422000Y-89948000D02*
X136752000Y-89948000D01*
X136752000Y-89948000D02*
X136752000Y-96488000D01*
X136752000Y-96488000D02*
X136422000Y-96488000D01*
X134342000Y-89948000D02*
X134012000Y-89948000D01*
X134012000Y-89948000D02*
X134012000Y-96488000D01*
X134012000Y-96488000D02*
X134342000Y-96488000D01*
%TO.C,SW1*%
X142700000Y-109092000D02*
X144320000Y-109092000D01*
X142700000Y-110952000D02*
X144320000Y-110952000D01*
X144320000Y-110952000D02*
X144320000Y-109092000D01*
X142700000Y-110952000D02*
X142700000Y-109092000D01*
X141160000Y-109332000D02*
X142543000Y-109332000D01*
X141160000Y-109332000D02*
X141160000Y-107949000D01*
X141400000Y-98172000D02*
X145620000Y-98172000D01*
X141400000Y-109092000D02*
X145620000Y-109092000D01*
X145620000Y-109092000D02*
X145620000Y-98172000D01*
X141400000Y-109092000D02*
X141400000Y-98172000D01*
%TO.C,*%
D10*
%TO.C,C1*%
X151237333Y-77827142D02*
X151189714Y-77874761D01*
X151046857Y-77922380D01*
X150951619Y-77922380D01*
X150808761Y-77874761D01*
X150713523Y-77779523D01*
X150665904Y-77684285D01*
X150618285Y-77493809D01*
X150618285Y-77350952D01*
X150665904Y-77160476D01*
X150713523Y-77065238D01*
X150808761Y-76970000D01*
X150951619Y-76922380D01*
X151046857Y-76922380D01*
X151189714Y-76970000D01*
X151237333Y-77017619D01*
X152189714Y-77922380D02*
X151618285Y-77922380D01*
X151904000Y-77922380D02*
X151904000Y-76922380D01*
X151808761Y-77065238D01*
X151713523Y-77160476D01*
X151618285Y-77208095D01*
%TO.C,J1*%
X125396666Y-98766380D02*
X125396666Y-99480666D01*
X125349047Y-99623523D01*
X125253809Y-99718761D01*
X125110952Y-99766380D01*
X125015714Y-99766380D01*
X126396666Y-99766380D02*
X125825238Y-99766380D01*
X126110952Y-99766380D02*
X126110952Y-98766380D01*
X126015714Y-98909238D01*
X125920476Y-99004476D01*
X125825238Y-99052095D01*
%TO.C,J2*%
X150288666Y-99020380D02*
X150288666Y-99734666D01*
X150241047Y-99877523D01*
X150145809Y-99972761D01*
X150002952Y-100020380D01*
X149907714Y-100020380D01*
X150717238Y-99115619D02*
X150764857Y-99068000D01*
X150860095Y-99020380D01*
X151098190Y-99020380D01*
X151193428Y-99068000D01*
X151241047Y-99115619D01*
X151288666Y-99210857D01*
X151288666Y-99306095D01*
X151241047Y-99448952D01*
X150669619Y-100020380D01*
X151288666Y-100020380D01*
%TO.C,J3*%
X158416666Y-81240380D02*
X158416666Y-81954666D01*
X158369047Y-82097523D01*
X158273809Y-82192761D01*
X158130952Y-82240380D01*
X158035714Y-82240380D01*
X158797619Y-81240380D02*
X159416666Y-81240380D01*
X159083333Y-81621333D01*
X159226190Y-81621333D01*
X159321428Y-81668952D01*
X159369047Y-81716571D01*
X159416666Y-81811809D01*
X159416666Y-82049904D01*
X159369047Y-82145142D01*
X159321428Y-82192761D01*
X159226190Y-82240380D01*
X158940476Y-82240380D01*
X158845238Y-82192761D01*
X158797619Y-82145142D01*
%TO.C,J4*%
X143684666Y-78192380D02*
X143684666Y-78906666D01*
X143637047Y-79049523D01*
X143541809Y-79144761D01*
X143398952Y-79192380D01*
X143303714Y-79192380D01*
X144589428Y-78525714D02*
X144589428Y-79192380D01*
X144351333Y-78144761D02*
X144113238Y-78859047D01*
X144732285Y-78859047D01*
%TO.C,J5*%
X129714666Y-76922380D02*
X129714666Y-77636666D01*
X129667047Y-77779523D01*
X129571809Y-77874761D01*
X129428952Y-77922380D01*
X129333714Y-77922380D01*
X130667047Y-76922380D02*
X130190857Y-76922380D01*
X130143238Y-77398571D01*
X130190857Y-77350952D01*
X130286095Y-77303333D01*
X130524190Y-77303333D01*
X130619428Y-77350952D01*
X130667047Y-77398571D01*
X130714666Y-77493809D01*
X130714666Y-77731904D01*
X130667047Y-77827142D01*
X130619428Y-77874761D01*
X130524190Y-77922380D01*
X130286095Y-77922380D01*
X130190857Y-77874761D01*
X130143238Y-77827142D01*
%TO.C,J6*%
X126158666Y-90848380D02*
X126158666Y-91562666D01*
X126111047Y-91705523D01*
X126015809Y-91800761D01*
X125872952Y-91848380D01*
X125777714Y-91848380D01*
X127063428Y-90848380D02*
X126872952Y-90848380D01*
X126777714Y-90896000D01*
X126730095Y-90943619D01*
X126634857Y-91086476D01*
X126587238Y-91276952D01*
X126587238Y-91657904D01*
X126634857Y-91753142D01*
X126682476Y-91800761D01*
X126777714Y-91848380D01*
X126968190Y-91848380D01*
X127063428Y-91800761D01*
X127111047Y-91753142D01*
X127158666Y-91657904D01*
X127158666Y-91419809D01*
X127111047Y-91324571D01*
X127063428Y-91276952D01*
X126968190Y-91229333D01*
X126777714Y-91229333D01*
X126682476Y-91276952D01*
X126634857Y-91324571D01*
X126587238Y-91419809D01*
%TO.C,J7*%
X126158666Y-76922380D02*
X126158666Y-77636666D01*
X126111047Y-77779523D01*
X126015809Y-77874761D01*
X125872952Y-77922380D01*
X125777714Y-77922380D01*
X126539619Y-76922380D02*
X127206285Y-76922380D01*
X126777714Y-77922380D01*
%TO.C,R1*%
X135723333Y-82664380D02*
X135390000Y-82188190D01*
X135151904Y-82664380D02*
X135151904Y-81664380D01*
X135532857Y-81664380D01*
X135628095Y-81712000D01*
X135675714Y-81759619D01*
X135723333Y-81854857D01*
X135723333Y-81997714D01*
X135675714Y-82092952D01*
X135628095Y-82140571D01*
X135532857Y-82188190D01*
X135151904Y-82188190D01*
X136675714Y-82664380D02*
X136104285Y-82664380D01*
X136390000Y-82664380D02*
X136390000Y-81664380D01*
X136294761Y-81807238D01*
X136199523Y-81902476D01*
X136104285Y-81950095D01*
%TO.C,R2*%
X130389333Y-87828380D02*
X130056000Y-87352190D01*
X129817904Y-87828380D02*
X129817904Y-86828380D01*
X130198857Y-86828380D01*
X130294095Y-86876000D01*
X130341714Y-86923619D01*
X130389333Y-87018857D01*
X130389333Y-87161714D01*
X130341714Y-87256952D01*
X130294095Y-87304571D01*
X130198857Y-87352190D01*
X129817904Y-87352190D01*
X130770285Y-86923619D02*
X130817904Y-86876000D01*
X130913142Y-86828380D01*
X131151238Y-86828380D01*
X131246476Y-86876000D01*
X131294095Y-86923619D01*
X131341714Y-87018857D01*
X131341714Y-87114095D01*
X131294095Y-87256952D01*
X130722666Y-87828380D01*
X131341714Y-87828380D01*
%TO.C,R3*%
X135469333Y-87828380D02*
X135136000Y-87352190D01*
X134897904Y-87828380D02*
X134897904Y-86828380D01*
X135278857Y-86828380D01*
X135374095Y-86876000D01*
X135421714Y-86923619D01*
X135469333Y-87018857D01*
X135469333Y-87161714D01*
X135421714Y-87256952D01*
X135374095Y-87304571D01*
X135278857Y-87352190D01*
X134897904Y-87352190D01*
X135802666Y-86828380D02*
X136421714Y-86828380D01*
X136088380Y-87209333D01*
X136231238Y-87209333D01*
X136326476Y-87256952D01*
X136374095Y-87304571D01*
X136421714Y-87399809D01*
X136421714Y-87637904D01*
X136374095Y-87733142D01*
X136326476Y-87780761D01*
X136231238Y-87828380D01*
X135945523Y-87828380D01*
X135850285Y-87780761D01*
X135802666Y-87733142D01*
%TO.C,SW1*%
X142176666Y-97432761D02*
X142319523Y-97480380D01*
X142557619Y-97480380D01*
X142652857Y-97432761D01*
X142700476Y-97385142D01*
X142748095Y-97289904D01*
X142748095Y-97194666D01*
X142700476Y-97099428D01*
X142652857Y-97051809D01*
X142557619Y-97004190D01*
X142367142Y-96956571D01*
X142271904Y-96908952D01*
X142224285Y-96861333D01*
X142176666Y-96766095D01*
X142176666Y-96670857D01*
X142224285Y-96575619D01*
X142271904Y-96528000D01*
X142367142Y-96480380D01*
X142605238Y-96480380D01*
X142748095Y-96528000D01*
X143081428Y-96480380D02*
X143319523Y-97480380D01*
X143510000Y-96766095D01*
X143700476Y-97480380D01*
X143938571Y-96480380D01*
X144843333Y-97480380D02*
X144271904Y-97480380D01*
X144557619Y-97480380D02*
X144557619Y-96480380D01*
X144462380Y-96623238D01*
X144367142Y-96718476D01*
X144271904Y-96766095D01*
%TD*%
M02*
