%TF.GenerationSoftware,KiCad,Pcbnew,(5.1.10)-1*%
%TF.CreationDate,2021-06-21T00:52:30-07:00*%
%TF.ProjectId,LED Matrix,4c454420-4d61-4747-9269-782e6b696361,v01*%
%TF.SameCoordinates,Original*%
%TF.FileFunction,Soldermask,Top*%
%TF.FilePolarity,Negative*%
%FSLAX46Y46*%
G04 Gerber Fmt 4.6, Leading zero omitted, Abs format (unit mm)*
G04 Created by KiCad (PCBNEW (5.1.10)-1) date 2021-06-21 00:52:30*
%MOMM*%
%LPD*%
G01*
G04 APERTURE LIST*
%ADD10C,2.201600*%
%ADD11C,1.701600*%
%ADD12O,2.351600X4.601600*%
%ADD13O,2.601600X5.101600*%
%ADD14O,1.801600X1.801600*%
%ADD15O,1.701600X1.701600*%
G04 APERTURE END LIST*
D10*
%TO.C,*%
X162052000Y-79248000D03*
%TD*%
%TO.C,C1*%
G36*
G01*
X153504800Y-82258000D02*
X153504800Y-83858000D01*
G75*
G02*
X153454000Y-83908800I-50800J0D01*
G01*
X151854000Y-83908800D01*
G75*
G02*
X151803200Y-83858000I0J50800D01*
G01*
X151803200Y-82258000D01*
G75*
G02*
X151854000Y-82207200I50800J0D01*
G01*
X153454000Y-82207200D01*
G75*
G02*
X153504800Y-82258000I0J-50800D01*
G01*
G37*
D11*
X150154000Y-83058000D03*
%TD*%
D12*
%TO.C,J1*%
X130398000Y-105156000D03*
D13*
X136398000Y-105156000D03*
%TD*%
D12*
%TO.C,J2*%
X156622000Y-105156000D03*
D13*
X150622000Y-105156000D03*
%TD*%
%TO.C,J3*%
G36*
G01*
X157849200Y-85432000D02*
X157849200Y-83732000D01*
G75*
G02*
X157900000Y-83681200I50800J0D01*
G01*
X159600000Y-83681200D01*
G75*
G02*
X159650800Y-83732000I0J-50800D01*
G01*
X159650800Y-85432000D01*
G75*
G02*
X159600000Y-85482800I-50800J0D01*
G01*
X157900000Y-85482800D01*
G75*
G02*
X157849200Y-85432000I0J50800D01*
G01*
G37*
D14*
X158750000Y-87122000D03*
X158750000Y-89662000D03*
X158750000Y-92202000D03*
X158750000Y-94742000D03*
X158750000Y-97282000D03*
%TD*%
%TO.C,J4*%
X144018000Y-94234000D03*
X144018000Y-91694000D03*
X144018000Y-89154000D03*
X144018000Y-86614000D03*
X144018000Y-84074000D03*
G36*
G01*
X143117200Y-82384000D02*
X143117200Y-80684000D01*
G75*
G02*
X143168000Y-80633200I50800J0D01*
G01*
X144868000Y-80633200D01*
G75*
G02*
X144918800Y-80684000I0J-50800D01*
G01*
X144918800Y-82384000D01*
G75*
G02*
X144868000Y-82434800I-50800J0D01*
G01*
X143168000Y-82434800D01*
G75*
G02*
X143117200Y-82384000I0J50800D01*
G01*
G37*
%TD*%
%TO.C,J5*%
G36*
G01*
X133946000Y-80148800D02*
X132246000Y-80148800D01*
G75*
G02*
X132195200Y-80098000I0J50800D01*
G01*
X132195200Y-78398000D01*
G75*
G02*
X132246000Y-78347200I50800J0D01*
G01*
X133946000Y-78347200D01*
G75*
G02*
X133996800Y-78398000I0J-50800D01*
G01*
X133996800Y-80098000D01*
G75*
G02*
X133946000Y-80148800I-50800J0D01*
G01*
G37*
X135636000Y-79248000D03*
X138176000Y-79248000D03*
%TD*%
%TO.C,J6*%
G36*
G01*
X125591200Y-94576000D02*
X125591200Y-92876000D01*
G75*
G02*
X125642000Y-92825200I50800J0D01*
G01*
X127342000Y-92825200D01*
G75*
G02*
X127392800Y-92876000I0J-50800D01*
G01*
X127392800Y-94576000D01*
G75*
G02*
X127342000Y-94626800I-50800J0D01*
G01*
X125642000Y-94626800D01*
G75*
G02*
X125591200Y-94576000I0J50800D01*
G01*
G37*
X126492000Y-96266000D03*
%TD*%
%TO.C,J7*%
G36*
G01*
X127392800Y-87034000D02*
X127392800Y-88734000D01*
G75*
G02*
X127342000Y-88784800I-50800J0D01*
G01*
X125642000Y-88784800D01*
G75*
G02*
X125591200Y-88734000I0J50800D01*
G01*
X125591200Y-87034000D01*
G75*
G02*
X125642000Y-86983200I50800J0D01*
G01*
X127342000Y-86983200D01*
G75*
G02*
X127392800Y-87034000I0J-50800D01*
G01*
G37*
X126492000Y-85344000D03*
X126492000Y-82804000D03*
X126492000Y-80264000D03*
%TD*%
D15*
%TO.C,R1*%
X139700000Y-84582000D03*
D11*
X132080000Y-84582000D03*
%TD*%
%TO.C,R2*%
X130556000Y-89408000D03*
D15*
X130556000Y-97028000D03*
%TD*%
D11*
%TO.C,R3*%
X135382000Y-89408000D03*
D15*
X135382000Y-97028000D03*
%TD*%
%TO.C,SW1*%
X143510000Y-99822000D03*
G36*
G01*
X144310000Y-108292800D02*
X142710000Y-108292800D01*
G75*
G02*
X142659200Y-108242000I0J50800D01*
G01*
X142659200Y-106642000D01*
G75*
G02*
X142710000Y-106591200I50800J0D01*
G01*
X144310000Y-106591200D01*
G75*
G02*
X144360800Y-106642000I0J-50800D01*
G01*
X144360800Y-108242000D01*
G75*
G02*
X144310000Y-108292800I-50800J0D01*
G01*
G37*
%TD*%
M02*
